<svg xmlns="http://www.w3.org/2000/svg" width="87" height="62" viewBox="0 0 87 62" fill="none">
  <path fill-rule="evenodd" clip-rule="evenodd" d="M6.33636 45.6254C6.59614 45.7978 7.37964 46.7693 7.65328 47.0621C8.92833 48.4264 10.6118 50.0361 12.4665 50.679C15.8398 51.8485 18.1063 48.7408 19.2549 46.7C20.3578 44.7407 21.1324 43.0334 21.9298 40.9352L23.4227 36.812C24.0274 34.9589 24.9667 32.2039 25.4605 30.3907L25.4633 30.1448C24.8248 29.0699 24.7538 27.8173 22.9825 25.4494C19.0852 20.2397 12.6723 19.8731 8.31479 23.8519C3.70308 28.063 3.02161 34.4141 4.44416 40.3505C4.80208 41.8443 5.53623 44.2705 6.33636 45.6254Z" fill="#022858"/>
  <path fill-rule="evenodd" clip-rule="evenodd" d="M63.8203 29.9775L63.8381 30.168C63.9986 30.2706 63.8871 30.0879 64.008 30.3928L64.5814 32.2437C64.8123 32.964 65.0266 33.6524 65.2723 34.363C66.6041 38.2131 68.1282 42.8437 70.1906 46.1459C71.3778 48.047 73.5042 51.1206 76.9995 49.927C79.1692 49.1859 80.437 47.6287 81.8177 46.3716C82.0964 46.1179 82.2353 45.902 82.4778 45.6547C82.7296 45.3982 82.9079 45.1082 83.1768 44.8925C83.5838 44.2002 83.9522 43.1251 84.2192 42.3768C85.2425 39.5103 85.8625 36.3594 85.5994 33.2199C85.2367 28.8921 83.2633 25.5097 80.9533 23.6436C78.1276 21.3604 74.3118 20.2057 70.2144 22.1456C68.5712 22.9236 67.3056 24.1762 66.3588 25.4013C65.176 26.9323 64.7571 28.0207 64.049 29.7008C64.031 29.7438 63.9925 29.8242 63.9747 29.8469C63.8555 29.9986 63.9997 29.8749 63.8203 29.9778" fill="#96C9DC"/>
  <mask id="mask0_348_904" style="mask-type:luminance" maskUnits="userSpaceOnUse" x="54" y="30" width="30" height="32">
    <path d="M54 52.1723L54.0053 52.4947C54.1713 52.6275 54.6036 53.2092 54.7913 53.4335C58.6417 58.0349 64.5129 64.5679 71.1038 60.6391C74.8841 58.3856 78.4062 53.0353 80.6353 49.3308C80.9511 48.8059 82.9758 45.3886 83.1682 44.8915C82.8995 45.1075 82.7213 45.3972 82.4693 45.6537C82.2267 45.9007 82.0875 46.117 81.8091 46.3706C80.4285 47.6279 79.1603 49.1849 76.9909 49.926C73.4956 51.1198 71.3692 48.046 70.182 46.145C68.1199 42.8427 66.5956 38.2121 65.2637 34.362C65.0178 33.6514 64.8034 32.963 64.5728 32.2427L63.9994 30.3918C63.8785 30.0866 63.99 30.2693 63.8295 30.167C63.7873 30.467 62.8148 32.5519 62.6182 32.9663C61.4133 35.5084 60.1321 38.572 58.9405 41.1947L55.2471 49.4616C55.0574 49.8817 54.1672 51.9885 54 52.1723Z" fill="white"/>
  </mask>
  <g mask="url(#mask0_348_904)">
    <path d="M83.7046 30.842L82.3828 65.248L82.3845 65.2481L83.7062 30.842L83.7046 30.842Z" fill="#0289B8"/>
    <path d="M83.6108 30.8493L82.2891 65.2554L82.4597 65.2619L83.7815 30.8559L83.6108 30.8493Z" fill="#0389B8"/>
    <path d="M83.472 30.8286L82.1562 65.2349L82.3272 65.2414L83.6429 30.8351L83.472 30.8286Z" fill="#038AB8"/>
    <path d="M83.3626 30.8247L82.0469 65.231L82.2178 65.2375L83.5336 30.8312L83.3626 30.8247Z" fill="#048AB8"/>
    <path d="M83.2749 30.8371L81.9531 65.2432L82.1241 65.2497L83.4458 30.8437L83.2749 30.8371Z" fill="#048AB9"/>
    <path d="M83.1655 30.8327L81.8438 65.2388L82.0147 65.2453L83.3364 30.8393L83.1655 30.8327Z" fill="#058AB9"/>
    <path d="M83.0405 30.8283L81.7188 65.2344L81.8897 65.2409L83.2114 30.8349L83.0405 30.8283Z" fill="#068BB9"/>
    <path d="M82.9311 30.8239L81.6094 65.23L81.7803 65.2365L83.1021 30.8305L82.9311 30.8239Z" fill="#068BB9"/>
    <path d="M82.8139 30.8142L81.4922 65.2202L81.6631 65.2268L82.9849 30.8207L82.8139 30.8142Z" fill="#078BB9"/>
    <path d="M82.7046 30.8151L81.3828 65.2212L81.5537 65.2278L82.8755 30.8217L82.7046 30.8151Z" fill="#078BB9"/>
    <path d="M82.5657 30.7944L81.25 65.2007L81.4209 65.2072L82.7367 30.8009L82.5657 30.7944Z" fill="#088CB9"/>
    <path d="M82.4564 30.789L81.1406 65.1953L81.3116 65.2018L82.6273 30.7956L82.4564 30.789Z" fill="#098CBA"/>
    <path d="M82.353 30.7975L81.0312 65.2036L81.2022 65.2102L82.5239 30.8041L82.353 30.7975Z" fill="#098CBA"/>
    <path d="M82.2436 30.7976L80.9219 65.2036L81.0925 65.2102L82.4143 30.8041L82.2436 30.7976Z" fill="#0A8CBA"/>
    <path d="M82.1342 30.7936L80.8125 65.1997L80.9834 65.2063L82.3052 30.8002L82.1342 30.7936Z" fill="#0A8DBA"/>
    <path d="M82.0171 30.7893L80.6953 65.1953L80.8663 65.2019L82.188 30.7958L82.0171 30.7893Z" fill="#0B8DBA"/>
    <path d="M81.9077 30.7849L80.5859 65.1909L80.7569 65.1975L82.0786 30.7914L81.9077 30.7849Z" fill="#0B8DBA"/>
    <path d="M81.7983 30.7805L80.4766 65.1865L80.6475 65.1931L81.9692 30.787L81.7983 30.7805Z" fill="#0C8DBA"/>
    <path d="M81.6595 30.7592L80.3438 65.1655L80.5147 65.1721L81.8304 30.7658L81.6595 30.7592Z" fill="#0D8EBB"/>
    <path d="M81.5561 30.7668L80.2344 65.1729L80.4053 65.1794L81.7271 30.7734L81.5561 30.7668Z" fill="#0D8EBB"/>
    <path d="M81.4467 30.7673L80.125 65.1733L80.2959 65.1799L81.6177 30.7739L81.4467 30.7673Z" fill="#0E8EBB"/>
    <path d="M81.3296 30.7585L80.0078 65.1646L80.1788 65.1711L81.5005 30.7651L81.3296 30.7585Z" fill="#0E8EBB"/>
    <path d="M81.2202 30.7585L79.8984 65.1646L80.0694 65.1711L81.3911 30.7651L81.2202 30.7585Z" fill="#0F8FBB"/>
    <path d="M81.0952 30.7487L79.7734 65.1548L79.9441 65.1613L81.2658 30.7553L81.0952 30.7487Z" fill="#108FBB"/>
    <path d="M80.9936 30.7497L79.6719 65.1558L79.8428 65.1623L81.1646 30.7563L80.9936 30.7497Z" fill="#108FBB"/>
    <path d="M80.8764 30.7458L79.5547 65.1519L79.7256 65.1584L81.0474 30.7524L80.8764 30.7458Z" fill="#118FBC"/>
    <path d="M80.7454 30.7241L79.4297 65.1304L79.6004 65.1369L80.9161 30.7306L80.7454 30.7241Z" fill="#1190BC"/>
    <path d="M80.6499 30.7316L79.3281 65.1377L79.4991 65.1443L80.8208 30.7382L80.6499 30.7316Z" fill="#1290BC"/>
    <path d="M80.5405 30.7326L79.2188 65.1387L79.3897 65.1452L80.7114 30.7392L80.5405 30.7326Z" fill="#1390BC"/>
    <path d="M80.4155 30.7229L79.0938 65.1289L79.2647 65.1355L80.5864 30.7294L80.4155 30.7229Z" fill="#1390BC"/>
    <path d="M80.3139 30.7233L78.9922 65.1294L79.1631 65.136L80.4849 30.7299L80.3139 30.7233Z" fill="#1491BC"/>
    <path d="M80.1889 30.7145L78.8672 65.1206L79.0381 65.1272L80.3599 30.7211L80.1889 30.7145Z" fill="#1491BC"/>
    <path d="M80.0796 30.7102L78.7578 65.1162L78.9287 65.1228L80.2505 30.7167L80.0796 30.7102Z" fill="#1591BD"/>
    <path d="M79.9702 30.7101L78.6484 65.1162L78.8194 65.1228L80.1411 30.7167L79.9702 30.7101Z" fill="#1691BD"/>
    <path d="M79.853 30.7063L78.5312 65.1123L78.7022 65.1189L80.0239 30.7128L79.853 30.7063Z" fill="#1692BD"/>
    <path d="M79.7436 30.7018L78.4219 65.1079L78.5925 65.1145L79.9143 30.7084L79.7436 30.7018Z" fill="#1792BD"/>
    <path d="M79.6186 30.6926L78.2969 65.0986L78.4678 65.1052L79.7896 30.6991L79.6186 30.6926Z" fill="#1792BD"/>
    <path d="M79.5092 30.6926L78.1875 65.0986L78.3584 65.1052L79.6802 30.6991L79.5092 30.6926Z" fill="#1892BD"/>
    <path d="M79.3999 30.6828L78.0781 65.0889L78.2488 65.0954L79.5705 30.6894L79.3999 30.6828Z" fill="#1993BD"/>
    <path d="M79.2827 30.6843L77.9609 65.0903L78.1319 65.0969L79.4536 30.6908L79.2827 30.6843Z" fill="#1993BE"/>
    <path d="M79.1733 30.675L77.8516 65.0811L78.0225 65.0876L79.3443 30.6816L79.1733 30.675Z" fill="#1A93BE"/>
    <path d="M79.0639 30.6755L77.7422 65.0815L77.9131 65.0881L79.2349 30.6821L79.0639 30.6755Z" fill="#1A94BE"/>
    <path d="M78.9467 30.6716L77.625 65.0776L77.7959 65.0842L79.1177 30.6781L78.9467 30.6716Z" fill="#1B94BE"/>
    <path d="M78.8374 30.6672L77.5156 65.0732L77.6866 65.0798L79.0083 30.6738L78.8374 30.6672Z" fill="#1B94BE"/>
    <path d="M78.7202 30.6623L77.3984 65.0684L77.5694 65.0749L78.8911 30.6689L78.7202 30.6623Z" fill="#1C94BE"/>
    <path d="M78.5952 30.6525L77.2734 65.0586L77.4441 65.0651L78.7658 30.6591L78.5952 30.6525Z" fill="#1D95BE"/>
    <path d="M78.4858 30.6535L77.1641 65.0596L77.335 65.0661L78.6567 30.6601L78.4858 30.6535Z" fill="#1D95BF"/>
    <path d="M78.3686 30.6447L77.0469 65.0508L77.2178 65.0573L78.5396 30.6513L78.3686 30.6447Z" fill="#1E95BF"/>
    <path d="M78.2592 30.6447L76.9375 65.0508L77.1084 65.0573L78.4302 30.6513L78.2592 30.6447Z" fill="#1E95BF"/>
    <path d="M78.1282 30.6235L76.8125 65.0298L76.9834 65.0363L78.2992 30.63L78.1282 30.6235Z" fill="#1F96BF"/>
    <path d="M78.0111 30.6191L76.6953 65.0254L76.8662 65.0319L78.182 30.6256L78.0111 30.6191Z" fill="#2096BF"/>
    <path d="M77.9077 30.6266L76.5859 65.0327L76.7569 65.0393L78.0786 30.6332L77.9077 30.6266Z" fill="#2096BF"/>
    <path d="M77.8061 30.6271L76.4844 65.0332L76.6553 65.0398L77.9771 30.6337L77.8061 30.6271Z" fill="#2196BF"/>
    <path d="M77.6811 30.6184L76.3594 65.0244L76.5303 65.031L77.8521 30.6249L77.6811 30.6184Z" fill="#2197C0"/>
    <path d="M77.5796 30.6188L76.2578 65.0249L76.4287 65.0315L77.7505 30.6254L77.5796 30.6188Z" fill="#2297C0"/>
    <path d="M77.4624 30.6096L76.1406 65.0156L76.3116 65.0222L77.6333 30.6161L77.4624 30.6096Z" fill="#2397C0"/>
    <path d="M77.3452 30.6052L76.0234 65.0112L76.1944 65.0178L77.5161 30.6117L77.3452 30.6052Z" fill="#2397C0"/>
    <path d="M77.2142 30.5883L75.8984 64.9946L76.0691 65.0012L77.3848 30.5949L77.2142 30.5883Z" fill="#2498C0"/>
    <path d="M77.1048 30.5839L75.7891 64.9902L75.96 64.9968L77.2757 30.5905L77.1048 30.5839Z" fill="#2498C0"/>
    <path d="M77.0092 30.5969L75.6875 65.0029L75.8584 65.0095L77.1802 30.6034L77.0092 30.5969Z" fill="#2598C0"/>
    <path d="M76.8921 30.592L75.5703 64.998L75.7412 65.0046L77.063 30.5986L76.8921 30.592Z" fill="#2698C1"/>
    <path d="M76.7827 30.5876L75.4609 64.9937L75.6319 65.0002L76.9536 30.5942L76.7827 30.5876Z" fill="#2699C1"/>
    <path d="M76.6577 30.5788L75.3359 64.9849L75.5069 64.9914L76.8286 30.5854L76.6577 30.5788Z" fill="#2799C1"/>
    <path d="M76.5483 30.5793L75.2266 64.9854L75.3972 64.9919L76.719 30.5858L76.5483 30.5793Z" fill="#2799C1"/>
    <path d="M76.4389 30.57L75.1172 64.9761L75.2881 64.9826L76.6099 30.5766L76.4389 30.57Z" fill="#2899C1"/>
    <path d="M76.3001 30.5537L74.9844 64.96L75.1553 64.9665L76.4711 30.5602L76.3001 30.5537Z" fill="#289AC1"/>
    <path d="M76.2124 30.5666L74.8906 64.9727L75.0616 64.9792L76.3833 30.5732L76.2124 30.5666Z" fill="#299AC2"/>
    <path d="M76.103 30.5617L74.7812 64.9678L74.9522 64.9743L76.2739 30.5683L76.103 30.5617Z" fill="#2A9AC2"/>
    <path d="M75.9858 30.5573L74.6641 64.9634L74.835 64.9699L76.1567 30.5639L75.9858 30.5573Z" fill="#2A9AC2"/>
    <path d="M75.8764 30.5529L74.5547 64.959L74.7256 64.9656L76.0474 30.5595L75.8764 30.5529Z" fill="#2B9BC2"/>
    <path d="M75.7592 30.549L74.4375 64.9551L74.6084 64.9616L75.9302 30.5556L75.7592 30.549Z" fill="#2B9BC2"/>
    <path d="M75.6421 30.5451L74.3203 64.9512L74.4912 64.9577L75.813 30.5517L75.6421 30.5451Z" fill="#2C9BC2"/>
    <path d="M75.5249 30.5402L74.2031 64.9463L74.3741 64.9529L75.6958 30.5468L75.5249 30.5402Z" fill="#2D9BC2"/>
    <path d="M75.3939 30.5185L74.0781 64.9248L74.2491 64.9313L75.5648 30.525L75.3939 30.5185Z" fill="#2D9CC3"/>
    <path d="M75.2983 30.531L73.9766 64.937L74.1475 64.9436L75.4692 30.5375L75.2983 30.531Z" fill="#2E9CC3"/>
    <path d="M75.1889 30.5265L73.8672 64.9326L74.0381 64.9392L75.3599 30.5331L75.1889 30.5265Z" fill="#2E9CC3"/>
    <path d="M75.0717 30.5227L73.75 64.9287L73.9209 64.9353L75.2427 30.5292L75.0717 30.5227Z" fill="#2F9CC3"/>
    <path d="M74.9546 30.5182L73.6328 64.9243L73.8037 64.9309L75.1255 30.5248L74.9546 30.5182Z" fill="#309DC3"/>
    <path d="M74.8452 30.5144L73.5234 64.9204L73.6944 64.927L75.0161 30.5209L74.8452 30.5144Z" fill="#309DC3"/>
    <path d="M74.728 30.5099L73.4062 64.916L73.5772 64.9226L74.8989 30.5165L74.728 30.5099Z" fill="#319DC3"/>
    <path d="M74.6186 30.5051L73.2969 64.9111L73.4678 64.9177L74.7896 30.5116L74.6186 30.5051Z" fill="#319DC4"/>
    <path d="M74.4798 30.4834L73.1641 64.8896L73.335 64.8962L74.6507 30.4899L74.4798 30.4834Z" fill="#329EC4"/>
    <path d="M74.3921 30.4958L73.0703 64.9019L73.241 64.9084L74.5627 30.5023L74.3921 30.4958Z" fill="#339EC4"/>
    <path d="M74.2671 30.487L72.9453 64.8931L73.1163 64.8996L74.438 30.4936L74.2671 30.487Z" fill="#339EC4"/>
    <path d="M74.1655 30.488L72.8438 64.894L73.0147 64.9006L74.3364 30.4945L74.1655 30.488Z" fill="#349FC4"/>
    <path d="M74.0483 30.4826L72.7266 64.8887L72.8972 64.8952L74.219 30.4892L74.0483 30.4826Z" fill="#349FC4"/>
    <path d="M73.9311 30.4792L72.6094 64.8853L72.7803 64.8918L74.1021 30.4858L73.9311 30.4792Z" fill="#359FC4"/>
    <path d="M73.8217 30.4743L72.5 64.8804L72.6709 64.8869L73.9927 30.4809L73.8217 30.4743Z" fill="#369FC5"/>
    <path d="M73.7046 30.4704L72.3828 64.8765L72.5538 64.883L73.8755 30.477L73.7046 30.4704Z" fill="#36A0C5"/>
    <path d="M73.5736 30.4487L72.2578 64.855L72.4287 64.8615L73.7445 30.4552L73.5736 30.4487Z" fill="#37A0C5"/>
    <path d="M73.4702 30.4563L72.1484 64.8623L72.3194 64.8689L73.6411 30.4628L73.4702 30.4563Z" fill="#37A0C5"/>
    <path d="M73.353 30.4518L72.0312 64.8579L72.2022 64.8645L73.5239 30.4584L73.353 30.4518Z" fill="#38A0C5"/>
    <path d="M73.2514 30.4475L71.9297 64.8535L72.1006 64.8601L73.4224 30.454L73.2514 30.4475Z" fill="#38A1C5"/>
    <path d="M73.1421 30.4484L71.8203 64.8545L71.9912 64.8611L73.313 30.455L73.1421 30.4484Z" fill="#39A1C5"/>
    <path d="M73.0249 30.4387L71.7031 64.8447L71.8741 64.8513L73.1958 30.4452L73.0249 30.4387Z" fill="#3AA1C6"/>
    <path d="M72.9155 30.4387L71.5938 64.8447L71.7644 64.8513L73.0861 30.4452L72.9155 30.4387Z" fill="#3AA1C6"/>
    <path d="M72.7905 30.4352L71.4688 64.8413L71.6397 64.8479L72.9614 30.4418L72.7905 30.4352Z" fill="#3BA2C6"/>
    <path d="M72.6517 30.4135L71.3359 64.8198L71.5069 64.8264L72.8226 30.4201L72.6517 30.4135Z" fill="#3BA2C6"/>
    <path d="M72.5639 30.4216L71.2422 64.8276L71.4131 64.8342L72.7349 30.4281L72.5639 30.4216Z" fill="#3CA2C6"/>
    <path d="M72.4546 30.4226L71.1328 64.8286L71.3038 64.8352L72.6255 30.4291L72.4546 30.4226Z" fill="#3DA2C6"/>
    <path d="M72.3296 30.4123L71.0078 64.8184L71.1787 64.8249L72.5005 30.4189L72.3296 30.4123Z" fill="#3DA3C6"/>
    <path d="M72.228 30.4133L70.9062 64.8193L71.0772 64.8259L72.3989 30.4198L72.228 30.4133Z" fill="#3EA3C7"/>
    <path d="M72.1108 30.405L70.7891 64.811L70.96 64.8176L72.2817 30.4115L72.1108 30.405Z" fill="#3EA3C7"/>
    <path d="M71.9936 30.3996L70.6719 64.8057L70.8428 64.8122L72.1646 30.4062L71.9936 30.3996Z" fill="#3FA3C7"/>
    <path d="M71.8626 30.3828L70.5469 64.7891L70.7175 64.7956L72.0333 30.3893L71.8626 30.3828Z" fill="#40A4C7"/>
    <path d="M71.7749 30.3957L70.4531 64.8018L70.6241 64.8083L71.9458 30.4023L71.7749 30.3957Z" fill="#40A4C7"/>
    <path d="M71.6577 30.3918L70.3359 64.7979L70.5069 64.8044L71.8286 30.3984L71.6577 30.3918Z" fill="#41A4C7"/>
    <path d="M71.5405 30.382L70.2188 64.7881L70.3894 64.7946L71.7112 30.3886L71.5405 30.382Z" fill="#41A4C7"/>
    <path d="M71.4311 30.383L70.1094 64.7891L70.2803 64.7956L71.6021 30.3896L71.4311 30.383Z" fill="#42A5C8"/>
    <path d="M71.3061 30.3737L69.9844 64.7798L70.1553 64.7864L71.4771 30.3803L71.3061 30.3737Z" fill="#43A5C8"/>
    <path d="M71.2046 30.3742L69.8828 64.7803L70.0538 64.7868L71.3755 30.3808L71.2046 30.3742Z" fill="#43A5C8"/>
    <path d="M71.0796 30.3649L69.7578 64.771L69.9287 64.7776L71.2505 30.3715L71.0796 30.3649Z" fill="#44A5C8"/>
    <path d="M70.9486 30.3486L69.6328 64.7549L69.8037 64.7614L71.1195 30.3551L70.9486 30.3486Z" fill="#44A6C8"/>
    <path d="M70.8608 30.361L69.5391 64.7671L69.71 64.7737L71.0318 30.3676L70.8608 30.361Z" fill="#45A6C8"/>
    <path d="M70.7436 30.3566L69.4219 64.7627L69.5928 64.7693L70.9146 30.3632L70.7436 30.3566Z" fill="#46A6C8"/>
    <path d="M70.6264 30.3474L69.3047 64.7534L69.4756 64.76L70.7974 30.3539L70.6264 30.3474Z" fill="#46A6C9"/>
    <path d="M70.5092 30.343L69.1875 64.749L69.3584 64.7556L70.6802 30.3495L70.5092 30.343Z" fill="#47A7C9"/>
    <path d="M70.3999 30.3434L69.0781 64.7495L69.2491 64.7561L70.5708 30.35L70.3999 30.3434Z" fill="#47A7C9"/>
    <path d="M70.2905 30.3337L68.9688 64.7397L69.1397 64.7463L70.4614 30.3403L70.2905 30.3337Z" fill="#48A7C9"/>
    <path d="M70.1811 30.3347L68.8594 64.7407L69.0303 64.7473L70.3521 30.3412L70.1811 30.3347Z" fill="#48A7C9"/>
    <path d="M70.0423 30.3134L68.7266 64.7197L68.8975 64.7263L70.2132 30.32L70.0423 30.3134Z" fill="#49A8C9"/>
    <path d="M69.9251 30.3095L68.6094 64.7158L68.7803 64.7224L70.0961 30.3161L69.9251 30.3095Z" fill="#4AA8C9"/>
    <path d="M69.8296 30.3166L68.5078 64.7227L68.6787 64.7292L70.0005 30.3232L69.8296 30.3166Z" fill="#4AA8CA"/>
    <path d="M69.7202 30.3171L68.3984 64.7231L68.5694 64.7297L69.8911 30.3237L69.7202 30.3171Z" fill="#4BA9CA"/>
    <path d="M69.603 30.3083L68.2812 64.7144L68.4522 64.7209L69.7739 30.3149L69.603 30.3083Z" fill="#4BA9CA"/>
    <path d="M69.4936 30.3083L68.1719 64.7144L68.3428 64.7209L69.6646 30.3149L69.4936 30.3083Z" fill="#4CA9CA"/>
    <path d="M69.3686 30.2985L68.0469 64.7046L68.2175 64.7111L69.5393 30.3051L69.3686 30.2985Z" fill="#4DA9CA"/>
    <path d="M69.2592 30.2946L67.9375 64.7007L68.1084 64.7073L69.4302 30.3012L69.2592 30.2946Z" fill="#4DAACA"/>
    <path d="M69.1499 30.2956L67.8281 64.7017L67.9991 64.7082L69.3208 30.3022L69.1499 30.2956Z" fill="#4EAACA"/>
    <path d="M69.0327 30.2912L67.7109 64.6973L67.8816 64.7038L69.2033 30.2978L69.0327 30.2912Z" fill="#4EAACB"/>
    <path d="M68.9233 30.2868L67.6016 64.6929L67.7725 64.6994L69.0942 30.2934L68.9233 30.2868Z" fill="#4FAACB"/>
    <path d="M68.8139 30.2824L67.4922 64.6885L67.6631 64.695L68.9849 30.289L68.8139 30.2824Z" fill="#4FAACB"/>
    <path d="M68.6967 30.278L67.375 64.6841L67.5457 64.6906L68.8674 30.2846L68.6967 30.278Z" fill="#50ABCB"/>
    <path d="M68.5717 30.2687L67.25 64.6748L67.4209 64.6814L68.7427 30.2753L68.5717 30.2687Z" fill="#51ABCB"/>
    <path d="M68.4702 30.2697L67.1484 64.6758L67.3194 64.6823L68.6411 30.2763L68.4702 30.2697Z" fill="#51ABCB"/>
    <path d="M68.3452 30.2599L67.0234 64.666L67.1944 64.6726L68.5161 30.2665L68.3452 30.2599Z" fill="#52ABCB"/>
    <path d="M68.2142 30.2436L66.8984 64.6499L67.0694 64.6564L68.3851 30.2501L68.2142 30.2436Z" fill="#52ACCC"/>
    <path d="M68.1264 30.2561L66.8047 64.6621L66.9756 64.6687L68.2974 30.2626L68.1264 30.2561Z" fill="#53ACCC"/>
    <path d="M68.0171 30.2516L66.6953 64.6577L66.8662 64.6643L68.188 30.2582L68.0171 30.2516Z" fill="#53ACCC"/>
    <path d="M67.8999 30.2473L66.5781 64.6533L66.7491 64.6599L68.0708 30.2538L67.8999 30.2473Z" fill="#54ACCC"/>
    <path d="M67.7827 30.2429L66.4609 64.6489L66.6319 64.6555L67.9536 30.2494L67.7827 30.2429Z" fill="#55ADCC"/>
    <path d="M67.6655 30.2394L66.3438 64.6455L66.5147 64.6521L67.8364 30.246L67.6655 30.2394Z" fill="#55ADCC"/>
    <path d="M67.5561 30.2341L66.2344 64.6401L66.4053 64.6467L67.7271 30.2406L67.5561 30.2341Z" fill="#56ADCC"/>
    <path d="M67.4389 30.2302L66.1172 64.6362L66.2881 64.6428L67.6099 30.2367L67.4389 30.2302Z" fill="#56ADCC"/>
    <path d="M67.3079 30.2085L65.9922 64.6147L66.1631 64.6213L67.4789 30.215L67.3079 30.2085Z" fill="#57AECD"/>
    <path d="M67.2202 30.2209L65.8984 64.627L66.0694 64.6335L67.3911 30.2275L67.2202 30.2209Z" fill="#57AECD"/>
    <path d="M67.103 30.217L65.7812 64.623L65.9522 64.6296L67.2739 30.2236L67.103 30.217Z" fill="#58AECD"/>
    <path d="M66.9936 30.2121L65.6719 64.6182L65.8428 64.6247L67.1646 30.2187L66.9936 30.2121Z" fill="#59AECD"/>
    <path d="M66.8764 30.2082L65.5547 64.6143L65.7256 64.6208L67.0474 30.2148L66.8764 30.2082Z" fill="#59AFCD"/>
    <path d="M66.7592 30.2038L65.4375 64.6099L65.6084 64.6164L66.9302 30.2104L66.7592 30.2038Z" fill="#5AAFCD"/>
    <path d="M66.6499 30.1989L65.3281 64.605L65.4991 64.6115L66.8208 30.2055L66.6499 30.1989Z" fill="#5AAFCD"/>
    <path d="M66.5111 30.1777L65.1953 64.584L65.3662 64.5905L66.682 30.1842L66.5111 30.1777Z" fill="#5BAFCE"/>
    <path d="M66.4233 30.1911L65.1016 64.5972L65.2725 64.6037L66.5942 30.1977L66.4233 30.1911Z" fill="#5BB0CE"/>
    <path d="M66.3061 30.1857L64.9844 64.5918L65.1553 64.5984L66.4771 30.1923L66.3061 30.1857Z" fill="#5CB0CE"/>
    <path d="M66.1811 30.1765L64.8594 64.5825L65.03 64.5891L66.3518 30.183L66.1811 30.1765Z" fill="#5DB0CE"/>
    <path d="M66.0717 30.1774L64.75 64.5835L64.9209 64.5901L66.2427 30.184L66.0717 30.1774Z" fill="#5DB0CE"/>
    <path d="M65.9624 30.173L64.6406 64.5791L64.8116 64.5857L66.1333 30.1796L65.9624 30.173Z" fill="#5EB1CE"/>
    <path d="M65.8452 30.1686L64.5234 64.5747L64.6944 64.5813L66.0161 30.1752L65.8452 30.1686Z" fill="#5EB1CE"/>
    <path d="M65.7358 30.1647L64.4141 64.5708L64.585 64.5774L65.9067 30.1713L65.7358 30.1647Z" fill="#5FB1CF"/>
    <path d="M65.597 30.143L64.2812 64.5493L64.4522 64.5559L65.7679 30.1496L65.597 30.143Z" fill="#5FB1CF"/>
    <path d="M65.4876 30.1386L64.1719 64.5449L64.3428 64.5515L65.6586 30.1452L65.4876 30.1386Z" fill="#60B2CF"/>
    <path d="M65.3921 30.1511L64.0703 64.5571L64.2413 64.5637L65.563 30.1576L65.3921 30.1511Z" fill="#61B2CF"/>
    <path d="M65.2749 30.1423L63.9531 64.5483L64.1241 64.5549L65.4458 30.1488L65.2749 30.1423Z" fill="#61B2CF"/>
    <path d="M65.1577 30.1374L63.8359 64.5435L64.0069 64.55L65.3286 30.144L65.1577 30.1374Z" fill="#62B2CF"/>
    <path d="M65.0561 30.1379L63.7344 64.5439L63.9053 64.5505L65.2271 30.1444L65.0561 30.1379Z" fill="#62B3CF"/>
    <path d="M64.9311 30.1291L63.6094 64.5352L63.7803 64.5417L65.1021 30.1357L64.9311 30.1291Z" fill="#63B3D0"/>
    <path d="M64.8296 30.1291L63.5078 64.5352L63.6785 64.5417L65.0002 30.1356L64.8296 30.1291Z" fill="#63B3D0"/>
    <path d="M64.6907 30.1079L63.375 64.5142L63.5459 64.5207L64.8617 30.1144L64.6907 30.1079Z" fill="#64B3D0"/>
    <path d="M64.5736 30.1035L63.2578 64.5098L63.4287 64.5163L64.7445 30.11L64.5736 30.1035Z" fill="#64B4D0"/>
    <path d="M64.478 30.111L63.1562 64.5171L63.3269 64.5236L64.6487 30.1176L64.478 30.111Z" fill="#65B4D0"/>
    <path d="M64.3686 30.112L63.0469 64.5181L63.2178 64.5246L64.5396 30.1186L64.3686 30.112Z" fill="#66B4D0"/>
    <path d="M64.2514 30.1027L62.9297 64.5088L63.1006 64.5154L64.4224 30.1093L64.2514 30.1027Z" fill="#66B4D0"/>
    <path d="M64.1421 30.1027L62.8203 64.5088L62.9913 64.5154L64.313 30.1093L64.1421 30.1027Z" fill="#67B5D1"/>
    <path d="M64.0171 30.0939L62.6953 64.5L62.866 64.5066L64.1877 30.1005L64.0171 30.0939Z" fill="#67B5D1"/>
    <path d="M63.9155 30.0944L62.5938 64.5005L62.7647 64.5071L64.0864 30.101L63.9155 30.0944Z" fill="#68B5D1"/>
    <path d="M63.7845 30.0732L62.4688 64.4795L62.6397 64.486L63.9554 30.0797L63.7845 30.0732Z" fill="#68B5D1"/>
    <path d="M63.6889 30.0851L62.3672 64.4912L62.5378 64.4978L63.8596 30.0917L63.6889 30.0851Z" fill="#69B6D1"/>
    <path d="M63.5717 30.0807L62.25 64.4868L62.4209 64.4934L63.7427 30.0873L63.5717 30.0807Z" fill="#6AB6D1"/>
    <path d="M63.4467 30.072L62.125 64.478L62.2959 64.4846L63.6177 30.0785L63.4467 30.072Z" fill="#6AB6D1"/>
    <path d="M63.3452 30.0725L62.0234 64.4785L62.1941 64.4851L63.5158 30.079L63.3452 30.0725Z" fill="#6BB6D1"/>
    <path d="M63.2202 30.0637L61.8984 64.4697L62.0694 64.4763L63.3911 30.0702L63.2202 30.0637Z" fill="#6BB7D2"/>
    <path d="M63.1108 30.0637L61.7891 64.4697L61.96 64.4763L63.2817 30.0702L63.1108 30.0637Z" fill="#6CB7D2"/>
    <path d="M63.0014 30.0544L61.6797 64.4604L61.8506 64.467L63.1724 30.0609L63.0014 30.0544Z" fill="#6CB7D2"/>
    <path d="M62.8626 30.038L61.5469 64.4443L61.7178 64.4509L63.0336 30.0446L62.8626 30.038Z" fill="#6DB7D2"/>
    <path d="M62.7749 30.0456L61.4531 64.4517L61.6241 64.4582L62.9458 30.0522L62.7749 30.0456Z" fill="#6EB8D2"/>
    <path d="M62.6655 30.0466L61.3438 64.4526L61.5147 64.4592L62.8364 30.0531L62.6655 30.0466Z" fill="#6EB8D2"/>
    <path d="M62.5405 30.0368L61.2188 64.4429L61.3897 64.4494L62.7114 30.0434L62.5405 30.0368Z" fill="#6FB8D2"/>
    <path d="M62.4233 30.0324L61.1016 64.4385L61.2725 64.445L62.5942 30.039L62.4233 30.0324Z" fill="#6FB8D3"/>
    <path d="M62.3217 30.0334L61 64.4395L61.1707 64.446L62.4924 30.04L62.3217 30.0334Z" fill="#70B9D3"/>
    <path d="M62.1967 30.0241L60.875 64.4302L61.0459 64.4367L62.3677 30.0307L62.1967 30.0241Z" fill="#70B9D3"/>
    <path d="M62.0952 30.0246L60.7734 64.4307L60.9444 64.4372L62.2661 30.0312L62.0952 30.0246Z" fill="#71B9D3"/>
    <path d="M61.9564 30.0029L60.6406 64.4092L60.8116 64.4157L62.1273 30.0094L61.9564 30.0029Z" fill="#72B9D3"/>
    <path d="M61.8686 30.0158L60.5469 64.4219L60.7178 64.4284L62.0396 30.0224L61.8686 30.0158Z" fill="#72B9D3"/>
    <path d="M61.7436 30.0065L60.4219 64.4126L60.5928 64.4192L61.9146 30.0131L61.7436 30.0065Z" fill="#73BAD3"/>
    <path d="M61.6342 30.0065L60.3125 64.4126L60.4834 64.4192L61.8052 30.0131L61.6342 30.0065Z" fill="#73BAD4"/>
    <path d="M61.5171 29.9978L60.1953 64.4038L60.3662 64.4104L61.688 30.0043L61.5171 29.9978Z" fill="#74BAD4"/>
    <path d="M61.4077 29.9987L60.0859 64.4048L60.2569 64.4114L61.5786 30.0053L61.4077 29.9987Z" fill="#74BAD4"/>
    <path d="M61.2827 29.989L59.9609 64.395L60.1319 64.4016L61.4536 29.9955L61.2827 29.989Z" fill="#75BBD4"/>
    <path d="M61.1811 29.9894L59.8594 64.3955L60.0303 64.4021L61.3521 29.996L61.1811 29.9894Z" fill="#76BBD4"/>
    <path d="M61.0717 29.9855L59.75 64.3916L59.9209 64.3982L61.2427 29.9921L61.0717 29.9855Z" fill="#76BBD4"/>
    <path d="M60.9467 29.9812L59.625 64.3872L59.7959 64.3938L61.1177 29.9877L60.9467 29.9812Z" fill="#77BBD4"/>
    <path d="M60.8374 29.9758L59.5156 64.3818L59.6866 64.3884L61.0083 29.9823L60.8374 29.9758Z" fill="#77BCD5"/>
    <path d="M60.728 29.9724L59.4062 64.3784L59.5772 64.385L60.8989 29.9789L60.728 29.9724Z" fill="#78BCD5"/>
    <path d="M60.6108 29.9675L59.2891 64.3735L59.46 64.3801L60.7817 29.974L60.6108 29.9675Z" fill="#78BCD5"/>
    <path d="M60.4858 29.9582L59.1641 64.3643L59.335 64.3708L60.6567 29.9648L60.4858 29.9582Z" fill="#79BCD5"/>
    <path d="M60.3842 29.9582L59.0625 64.3643L59.2334 64.3708L60.5552 29.9648L60.3842 29.9582Z" fill="#7ABDD5"/>
    <path d="M60.2454 29.937L58.9297 64.3433L59.1006 64.3498L60.4164 29.9435L60.2454 29.937Z" fill="#7ABDD5"/>
    <path d="M60.1361 29.9331L58.8203 64.3394L58.9913 64.3459L60.307 29.9396L60.1361 29.9331Z" fill="#7BBDD5"/>
    <path d="M60.0405 29.946L58.7188 64.3521L58.8897 64.3586L60.2114 29.9525L60.0405 29.946Z" fill="#7BBDD5"/>
    <path d="M59.9311 29.9421L58.6094 64.3481L58.7803 64.3547L60.1021 29.9487L59.9311 29.9421Z" fill="#7CBED6"/>
    <path d="M59.8139 29.9318L58.4922 64.3379L58.6628 64.3444L59.9846 29.9384L59.8139 29.9318Z" fill="#7CBED6"/>
    <path d="M59.7046 29.9328L58.3828 64.3389L58.5537 64.3454L59.8755 29.9394L59.7046 29.9328Z" fill="#7DBED6"/>
    <path d="M59.5874 29.9279L58.2656 64.334L58.4366 64.3406L59.7583 29.9345L59.5874 29.9279Z" fill="#7EBED6"/>
    <path d="M59.4702 29.9235L58.1484 64.3296L58.3191 64.3361L59.6408 29.9301L59.4702 29.9235Z" fill="#7EBFD6"/>
    <path d="M59.3392 29.9028L58.0234 64.3091L58.1944 64.3156L59.5101 29.9093L59.3392 29.9028Z" fill="#7FBFD6"/>
    <path d="M59.222 29.8989L57.9062 64.3052L58.0772 64.3117L59.3929 29.9054L59.222 29.8989Z" fill="#7FBFD6"/>
    <path d="M59.1342 29.9108L57.8125 64.3169L57.9832 64.3235L59.3049 29.9174L59.1342 29.9108Z" fill="#80BFD7"/>
    <path d="M59.0171 29.9064L57.6953 64.3125L57.8662 64.3191L59.188 29.913L59.0171 29.9064Z" fill="#80C0D7"/>
    <path d="M58.9077 29.9025L57.5859 64.3086L57.7569 64.3152L59.0786 29.9091L58.9077 29.9025Z" fill="#81C0D7"/>
    <path d="M58.7827 29.8976L57.4609 64.3037L57.6319 64.3103L58.9536 29.9042L58.7827 29.8976Z" fill="#82C0D7"/>
    <path d="M58.6733 29.8932L57.3516 64.2993L57.5225 64.3059L58.8442 29.8998L58.6733 29.8932Z" fill="#82C0D7"/>
    <path d="M58.5561 29.8894L57.2344 64.2954L57.4053 64.302L58.7271 29.8959L58.5561 29.8894Z" fill="#83C1D7"/>
    <path d="M58.4251 29.8676L57.1094 64.2739L57.2803 64.2805L58.5961 29.8742L58.4251 29.8676Z" fill="#83C1D7"/>
    <path d="M58.3374 29.8806L57.0156 64.2866L57.1863 64.2932L58.508 29.8871L58.3374 29.8806Z" fill="#84C1D8"/>
    <path d="M58.2124 29.8762L56.8906 64.2822L57.0616 64.2888L58.3833 29.8827L58.2124 29.8762Z" fill="#84C1D8"/>
    <path d="M58.103 29.8664L56.7812 64.2725L56.9522 64.279L58.2739 29.873L58.103 29.8664Z" fill="#85C2D8"/>
    <path d="M57.9936 29.8669L56.6719 64.2729L56.8428 64.2795L58.1646 29.8734L57.9936 29.8669Z" fill="#85C2D8"/>
    <path d="M57.8764 29.863L56.5547 64.269L56.7256 64.2756L58.0474 29.8695L57.8764 29.863Z" fill="#86C2D8"/>
    <path d="M57.7671 29.8586L56.4453 64.2646L56.6162 64.2712L57.938 29.8652L57.7671 29.8586Z" fill="#87C2D8"/>
    <path d="M57.6499 29.8542L56.3281 64.2603L56.4991 64.2668L57.8208 29.8608L57.6499 29.8542Z" fill="#87C3D8"/>
    <path d="M57.5189 29.833L56.2031 64.2393L56.3741 64.2458L57.6898 29.8395L57.5189 29.833Z" fill="#88C3D9"/>
    <path d="M57.4017 29.8291L56.0859 64.2354L56.2569 64.2419L57.5726 29.8356L57.4017 29.8291Z" fill="#88C3D9"/>
    <path d="M57.3061 29.841L55.9844 64.2471L56.1553 64.2536L57.4771 29.8476L57.3061 29.841Z" fill="#89C3D9"/>
    <path d="M57.1889 29.8322L55.8672 64.2383L56.0381 64.2448L57.3599 29.8388L57.1889 29.8322Z" fill="#89C4D9"/>
    <path d="M57.0796 29.8268L55.7578 64.2329L55.9288 64.2395L57.2505 29.8334L57.0796 29.8268Z" fill="#8AC4D9"/>
    <path d="M56.9624 29.8278L55.6406 64.2339L55.8113 64.2404L57.133 29.8344L56.9624 29.8278Z" fill="#8BC4D9"/>
    <path d="M56.853 29.8185L55.5312 64.2246L55.7022 64.2312L57.0239 29.8251L56.853 29.8185Z" fill="#8BC4D9"/>
    <path d="M56.7436 29.819L55.4219 64.2251L55.5928 64.2317L56.9146 29.8256L56.7436 29.819Z" fill="#8CC5DA"/>
    <path d="M56.6048 29.7978L55.2891 64.2041L55.4597 64.2106L56.7755 29.8043L56.6048 29.7978Z" fill="#8CC5DA"/>
    <path d="M56.5092 29.8102L55.1875 64.2163L55.3584 64.2229L56.6802 29.8168L56.5092 29.8102Z" fill="#8DC5DA"/>
    <path d="M56.3921 29.8015L55.0703 64.2075L55.2412 64.2141L56.563 29.808L56.3921 29.8015Z" fill="#8DC5DA"/>
    <path d="M56.2827 29.8015L54.9609 64.2075L55.1319 64.2141L56.4536 29.808L56.2827 29.8015Z" fill="#8EC6DA"/>
    <path d="M56.1655 29.7922L54.8438 64.1982L55.0147 64.2048L56.3364 29.7988L56.1655 29.7922Z" fill="#8FC6DA"/>
    <path d="M56.0561 29.7932L54.7344 64.1992L54.9053 64.2058L56.2271 29.7997L56.0561 29.7932Z" fill="#8FC6DA"/>
    <path d="M55.9311 29.7834L54.6094 64.1895L54.7803 64.196L56.1021 29.79L55.9311 29.7834Z" fill="#90C6DA"/>
    <path d="M55.8217 29.7844L54.5 64.1904L54.6709 64.197L55.9927 29.7909L55.8217 29.7844Z" fill="#90C7DB"/>
    <path d="M55.6986 29.7631L54.3828 64.1694L54.5537 64.176L55.8695 29.7697L55.6986 29.7631Z" fill="#91C7DB"/>
    <path d="M55.5952 29.7702L54.2734 64.1763L54.4444 64.1828L55.7661 29.7768L55.5952 29.7702Z" fill="#91C7DB"/>
    <path d="M55.4858 29.7702L54.1641 64.1763L54.3347 64.1828L55.6565 29.7768L55.4858 29.7702Z" fill="#92C7DB"/>
    <path d="M55.3686 29.7619L54.0469 64.168L54.2178 64.1745L55.5396 29.7685L55.3686 29.7619Z" fill="#93C8DB"/>
    <path d="M55.2592 29.7629L53.9375 64.1689L54.1084 64.1755L55.4302 29.7694L55.2592 29.7629Z" fill="#93C8DB"/>
    <path d="M55.1421 29.7531L53.8203 64.1592L53.9912 64.1657L55.313 29.7597L55.1421 29.7531Z" fill="#94C8DB"/>
    <path d="M55.0327 29.7536L53.7109 64.1597L53.8819 64.1662L55.2036 29.7602L55.0327 29.7536Z" fill="#94C8DC"/>
    <path d="M54.9155 29.7443L53.5938 64.1504L53.7647 64.157L55.0864 29.7509L54.9155 29.7443Z" fill="#95C9DC"/>
    <path d="M54.8626 29.7329L53.5469 64.1392L53.6397 64.1427L54.9554 29.7364L54.8626 29.7329Z" fill="#95C9DC"/>
  </g>
  <mask id="mask1_348_904" style="mask-type:luminance" maskUnits="userSpaceOnUse" x="6" y="30" width="29" height="32">
    <path d="M6.33649 45.6258C6.76179 46.3491 7.10003 47.1079 7.53115 47.849C9.63018 51.4587 10.8384 53.802 13.5648 57.0818C15.9899 59.999 19.4355 62.792 23.666 61.4177C26.9705 60.3442 29.6182 57.6313 31.906 55.2174L34.6056 52.1272C34.6752 51.8804 34.5252 51.6625 34.4126 51.3922L32.3912 46.6352C31.6291 44.8237 30.8653 43.0258 30.0926 41.2178L25.4601 30.3911C24.9663 32.2043 24.027 34.9593 23.4223 36.8124L21.9294 40.9356C21.132 43.0338 20.3576 44.7408 19.2545 46.7004C18.1059 48.7409 15.8394 51.8488 12.4661 50.6794C10.6113 50.0365 8.92791 48.4268 7.65286 47.0625C7.37921 46.7697 6.59572 45.7982 6.33594 45.6258" fill="white"/>
  </mask>
  <g mask="url(#mask1_348_904)">
    <path d="M34.385 30.287L34.3359 30.2876L34.7477 62.6063L34.7968 62.6057L34.385 30.287Z" fill="#01204F"/>
    <path d="M34.4002 30.2816L34.2344 30.2837L34.6462 62.6024L34.8119 62.6003L34.4002 30.2816Z" fill="#01204F"/>
    <path d="M34.2908 30.283L34.125 30.2852L34.5368 62.6039L34.7026 62.6017L34.2908 30.283Z" fill="#01204F"/>
    <path d="M34.1814 30.2791L34.0156 30.2812L34.4274 62.5999L34.5932 62.5978L34.1814 30.2791Z" fill="#01204F"/>
    <path d="M34.0642 30.2855L33.8984 30.2876L34.3102 62.6063L34.476 62.6042L34.0642 30.2855Z" fill="#012050"/>
    <path d="M33.9627 30.287L33.7969 30.2891L34.2087 62.6078L34.3744 62.6057L33.9627 30.287Z" fill="#012050"/>
    <path d="M33.8455 30.2884L33.6797 30.2905L34.0915 62.6092L34.2573 62.6071L33.8455 30.2884Z" fill="#012050"/>
    <path d="M33.7361 30.2899L33.5703 30.292L33.9821 62.6107L34.1479 62.6086L33.7361 30.2899Z" fill="#012150"/>
    <path d="M33.6267 30.2967L33.4609 30.2988L33.8727 62.6175L34.0385 62.6154L33.6267 30.2967Z" fill="#012150"/>
    <path d="M33.5173 30.2977L33.3516 30.2998L33.7634 62.6185L33.9291 62.6164L33.5173 30.2977Z" fill="#012150"/>
    <path d="M33.4002 30.2943L33.2344 30.2964L33.6462 62.6151L33.8119 62.613L33.4002 30.2943Z" fill="#012151"/>
    <path d="M33.2986 30.2957L33.1328 30.2979L33.5446 62.6165L33.7104 62.6144L33.2986 30.2957Z" fill="#012151"/>
    <path d="M33.1814 30.3021L33.0156 30.3042L33.4274 62.6229L33.5932 62.6208L33.1814 30.3021Z" fill="#012151"/>
    <path d="M33.072 30.2987L32.9062 30.3008L33.318 62.6195L33.4838 62.6174L33.072 30.2987Z" fill="#012151"/>
    <path d="M32.9627 30.3001L32.7969 30.3022L33.2087 62.6209L33.3744 62.6188L32.9627 30.3001Z" fill="#012251"/>
    <path d="M32.8533 30.3011L32.6875 30.3032L33.0993 62.6219L33.2651 62.6198L32.8533 30.3011Z" fill="#012251"/>
    <path d="M32.7439 30.3026L32.5781 30.3047L32.9899 62.6234L33.1557 62.6213L32.7439 30.3026Z" fill="#012251"/>
    <path d="M32.6345 30.2992L32.4688 30.3013L32.8805 62.62L33.0463 62.6179L32.6345 30.2992Z" fill="#012252"/>
    <path d="M32.533 30.3011L32.3672 30.3032L32.779 62.6219L32.9448 62.6198L32.533 30.3011Z" fill="#012252"/>
    <path d="M32.4158 30.3065L32.25 30.3086L32.6618 62.6273L32.8276 62.6252L32.4158 30.3065Z" fill="#012252"/>
    <path d="M32.2986 30.3079L32.1328 30.3101L32.5446 62.6288L32.7104 62.6267L32.2986 30.3079Z" fill="#012252"/>
    <path d="M32.197 30.305L32.0312 30.3071L32.443 62.6258L32.6088 62.6237L32.197 30.305Z" fill="#012252"/>
    <path d="M32.0798 30.3109L31.9141 30.313L32.3259 62.6317L32.4916 62.6296L32.0798 30.3109Z" fill="#012352"/>
    <path d="M31.9705 30.3123L31.8047 30.3145L32.2165 62.6331L32.3823 62.631L31.9705 30.3123Z" fill="#012353"/>
    <path d="M31.8611 30.3138L31.6953 30.3159L32.1071 62.6346L32.2729 62.6325L31.8611 30.3138Z" fill="#012353"/>
    <path d="M31.7517 30.3153L31.5859 30.3174L31.9977 62.6361L32.1635 62.634L31.7517 30.3153Z" fill="#012353"/>
    <path d="M31.6345 30.3216L31.4688 30.3237L31.8805 62.6424L32.0463 62.6403L31.6345 30.3216Z" fill="#012353"/>
    <path d="M31.5252 30.3231L31.3594 30.3252L31.7712 62.6439L31.9369 62.6418L31.5252 30.3231Z" fill="#012353"/>
    <path d="M31.4158 30.3197L31.25 30.3218L31.6618 62.6405L31.8276 62.6384L31.4158 30.3197Z" fill="#012353"/>
    <path d="M31.3064 30.3255L31.1406 30.3276L31.5524 62.6463L31.7182 62.6442L31.3064 30.3255Z" fill="#012453"/>
    <path d="M31.197 30.3275L31.0312 30.3296L31.443 62.6483L31.6088 62.6462L31.197 30.3275Z" fill="#012454"/>
    <path d="M31.0877 30.3236L30.9219 30.3257L31.3337 62.6444L31.4994 62.6423L31.0877 30.3236Z" fill="#012454"/>
    <path d="M30.9783 30.325L30.8125 30.3271L31.2243 62.6458L31.3901 62.6437L30.9783 30.325Z" fill="#012454"/>
    <path d="M30.8611 30.327L30.6953 30.3291L31.1071 62.6478L31.2729 62.6457L30.8611 30.327Z" fill="#012454"/>
    <path d="M30.7517 30.3285L30.5859 30.3306L30.9977 62.6493L31.1635 62.6472L30.7517 30.3285Z" fill="#012454"/>
    <path d="M30.6502 30.3245L30.4844 30.3267L30.8962 62.6454L31.0619 62.6432L30.6502 30.3245Z" fill="#012454"/>
    <path d="M30.5486 30.326L30.3828 30.3281L30.7946 62.6468L30.9604 62.6447L30.5486 30.326Z" fill="#012554"/>
    <path d="M30.4236 30.3324L30.2578 30.3345L30.6696 62.6532L30.8354 62.6511L30.4236 30.3324Z" fill="#012555"/>
    <path d="M30.3142 30.3328L30.1484 30.335L30.5602 62.6537L30.726 62.6515L30.3142 30.3328Z" fill="#012555"/>
    <path d="M30.2048 30.3304L30.0391 30.3325L30.4509 62.6512L30.6166 62.6491L30.2048 30.3304Z" fill="#012555"/>
    <path d="M30.0955 30.3363L29.9297 30.3384L30.3415 62.6571L30.5073 62.655L30.0955 30.3363Z" fill="#012555"/>
    <path d="M29.9783 30.3372L29.8125 30.3394L30.2243 62.6581L30.3901 62.6559L29.9783 30.3372Z" fill="#022555"/>
    <path d="M29.8845 30.3343L29.7188 30.3364L30.1305 62.6551L30.2963 62.653L29.8845 30.3343Z" fill="#022555"/>
    <path d="M29.7595 30.3407L29.5938 30.3428L30.0055 62.6615L30.1713 62.6594L29.7595 30.3407Z" fill="#022656"/>
    <path d="M29.6502 30.3421L29.4844 30.3442L29.8962 62.6629L30.0619 62.6608L29.6502 30.3421Z" fill="#022656"/>
    <path d="M29.533 30.348L29.3672 30.3501L29.779 62.6688L29.9448 62.6667L29.533 30.348Z" fill="#022656"/>
    <path d="M29.4236 30.3451L29.2578 30.3472L29.6696 62.6659L29.8354 62.6638L29.4236 30.3451Z" fill="#022656"/>
    <path d="M29.3142 30.3509L29.1484 30.353L29.5602 62.6717L29.726 62.6696L29.3142 30.3509Z" fill="#022656"/>
    <path d="M29.197 30.3524L29.0312 30.3545L29.443 62.6732L29.6088 62.6711L29.197 30.3524Z" fill="#022656"/>
    <path d="M29.0955 30.349L28.9297 30.3511L29.3415 62.6698L29.5073 62.6677L29.0955 30.349Z" fill="#022656"/>
    <path d="M28.9861 30.3504L28.8203 30.3525L29.2321 62.6712L29.3979 62.6691L28.9861 30.3504Z" fill="#022757"/>
    <path d="M28.8767 30.3519L28.7109 30.354L29.1227 62.6727L29.2885 62.6706L28.8767 30.3519Z" fill="#022757"/>
    <path d="M28.7595 30.3534L28.5938 30.3555L29.0055 62.6742L29.1713 62.6721L28.7595 30.3534Z" fill="#022757"/>
    <path d="M28.6658 30.3499L28.5 30.3521L28.9118 62.6707L29.0776 62.6686L28.6658 30.3499Z" fill="#022757"/>
    <path d="M28.5564 30.3514L28.3906 30.3535L28.8024 62.6722L28.9682 62.6701L28.5564 30.3514Z" fill="#022757"/>
    <path d="M28.4314 30.3578L28.2656 30.3599L28.6774 62.6786L28.8432 62.6764L28.4314 30.3578Z" fill="#022757"/>
    <path d="M28.322 30.3636L28.1562 30.3657L28.568 62.6844L28.7338 62.6823L28.322 30.3636Z" fill="#022758"/>
    <path d="M28.2205 30.3558L28.0547 30.3579L28.4665 62.6766L28.6323 62.6745L28.2205 30.3558Z" fill="#022758"/>
    <path d="M28.1033 30.3617L27.9375 30.3638L28.3493 62.6825L28.5151 62.6804L28.1033 30.3617Z" fill="#022858"/>
    <path d="M27.9861 30.3631L27.8203 30.3652L28.2321 62.6839L28.3979 62.6818L27.9861 30.3631Z" fill="#022858"/>
    <path d="M27.8923 30.3602L27.7266 30.3623L28.1384 62.681L28.3041 62.6789L27.8923 30.3602Z" fill="#022858"/>
    <path d="M27.7752 30.3661L27.6094 30.3682L28.0212 62.6869L28.1869 62.6847L27.7752 30.3661Z" fill="#022858"/>
    <path d="M27.658 30.3675L27.4922 30.3696L27.904 62.6883L28.0698 62.6862L27.658 30.3675Z" fill="#022858"/>
    <path d="M27.5486 30.3734L27.3828 30.3755L27.7946 62.6942L27.9604 62.6921L27.5486 30.3734Z" fill="#022859"/>
    <path d="M27.447 30.37L27.2812 30.3721L27.693 62.6908L27.8588 62.6887L27.447 30.37Z" fill="#022859"/>
    <path d="M27.322 30.3763L27.1562 30.3784L27.568 62.6971L27.7338 62.695L27.322 30.3763Z" fill="#022959"/>
    <path d="M27.2205 30.3773L27.0547 30.3794L27.4665 62.6981L27.6323 62.696L27.2205 30.3773Z" fill="#022959"/>
    <path d="M27.1111 30.3744L26.9453 30.3765L27.3571 62.6952L27.5229 62.693L27.1111 30.3744Z" fill="#022959"/>
    <path d="M27.0017 30.3758L26.8359 30.3779L27.2477 62.6966L27.4135 62.6945L27.0017 30.3758Z" fill="#022959"/>
    <path d="M26.8845 30.3817L26.7188 30.3838L27.1305 62.7025L27.2963 62.7004L26.8845 30.3817Z" fill="#02295A"/>
    <path d="M26.783 30.3787L26.6172 30.3809L27.029 62.6996L27.1948 62.6974L26.783 30.3787Z" fill="#02295A"/>
    <path d="M26.6736 30.3753L26.5078 30.3774L26.9196 62.6961L27.0854 62.694L26.6736 30.3753Z" fill="#02295A"/>
    <path d="M26.5564 30.3812L26.3906 30.3833L26.8024 62.702L26.9682 62.6999L26.5564 30.3812Z" fill="#022A5A"/>
    <path d="M26.447 30.3827L26.2812 30.3848L26.693 62.7035L26.8588 62.7013L26.447 30.3827Z" fill="#022A5A"/>
    <path d="M26.3298 30.389L26.1641 30.3911L26.5759 62.7098L26.7416 62.7077L26.3298 30.389Z" fill="#022A5A"/>
    <path d="M26.2283 30.3812L26.0625 30.3833L26.4743 62.702L26.6401 62.6999L26.2283 30.3812Z" fill="#022A5A"/>
    <path d="M26.1189 30.387L25.9531 30.3892L26.3649 62.7079L26.5307 62.7057L26.1189 30.387Z" fill="#022A5B"/>
    <path d="M26.0017 30.3885L25.8359 30.3906L26.2477 62.7093L26.4135 62.7072L26.0017 30.3885Z" fill="#022A5B"/>
    <path d="M25.908 30.3851L25.7422 30.3872L26.154 62.7059L26.3198 62.7038L25.908 30.3851Z" fill="#022A5B"/>
    <path d="M25.783 30.3866L25.6172 30.3887L26.029 62.7074L26.1948 62.7053L25.783 30.3866Z" fill="#022B5B"/>
    <path d="M25.6736 30.3929L25.5078 30.395L25.9196 62.7137L26.0854 62.7116L25.6736 30.3929Z" fill="#022B5B"/>
    <path d="M25.5564 30.3988L25.3906 30.4009L25.8024 62.7196L25.9682 62.7175L25.5564 30.3988Z" fill="#022B5B"/>
    <path d="M25.447 30.3958L25.2812 30.3979L25.693 62.7166L25.8588 62.7145L25.447 30.3958Z" fill="#022B5B"/>
    <path d="M25.3377 30.4017L25.1719 30.4038L25.5837 62.7225L25.7494 62.7204L25.3377 30.4017Z" fill="#022B5C"/>
    <path d="M25.2283 30.4032L25.0625 30.4053L25.4743 62.724L25.6401 62.7219L25.2283 30.4032Z" fill="#022B5C"/>
    <path d="M25.1189 30.3997L24.9531 30.4019L25.3649 62.7206L25.5307 62.7184L25.1189 30.3997Z" fill="#022B5C"/>
    <path d="M25.0095 30.3968L24.8438 30.3989L25.2555 62.7176L25.4213 62.7155L25.0095 30.3968Z" fill="#022B5C"/>
    <path d="M24.8923 30.4071L24.7266 30.4092L25.1384 62.7279L25.3041 62.7258L24.8923 30.4071Z" fill="#022C5C"/>
    <path d="M24.783 30.408L24.6172 30.4102L25.029 62.7289L25.1948 62.7268L24.783 30.408Z" fill="#022C5C"/>
    <path d="M24.6814 30.4056L24.5156 30.4077L24.9274 62.7264L25.0932 62.7243L24.6814 30.4056Z" fill="#022C5D"/>
    <path d="M24.5642 30.4061L24.3984 30.4082L24.8102 62.7269L24.976 62.7248L24.5642 30.4061Z" fill="#022C5D"/>
    <path d="M24.4548 30.408L24.2891 30.4102L24.7009 62.7289L24.8666 62.7267L24.4548 30.408Z" fill="#032C5D"/>
    <path d="M24.3611 30.4051L24.1953 30.4072L24.6071 62.7259L24.7729 62.7238L24.3611 30.4051Z" fill="#032C5D"/>
    <path d="M24.2439 30.4061L24.0781 30.4082L24.4899 62.7269L24.6557 62.7248L24.2439 30.4061Z" fill="#032C5D"/>
    <path d="M24.1267 30.4124L23.9609 30.4146L24.3727 62.7333L24.5385 62.7311L24.1267 30.4124Z" fill="#032D5D"/>
    <path d="M24.0173 30.4139L23.8516 30.416L24.2634 62.7347L24.4291 62.7326L24.0173 30.4139Z" fill="#032D5D"/>
    <path d="M23.908 30.411L23.7422 30.4131L24.154 62.7318L24.3198 62.7297L23.908 30.411Z" fill="#032D5E"/>
    <path d="M23.7986 30.412L23.6328 30.4141L24.0446 62.7328L24.2104 62.7306L23.7986 30.412Z" fill="#032D5E"/>
    <path d="M23.6814 30.4183L23.5156 30.4204L23.9274 62.7391L24.0932 62.737L23.6814 30.4183Z" fill="#032D5E"/>
    <path d="M23.572 30.4237L23.4062 30.4258L23.818 62.7445L23.9838 62.7424L23.572 30.4237Z" fill="#032D5E"/>
    <path d="M23.4705 30.4159L23.3047 30.418L23.7165 62.7367L23.8823 62.7346L23.4705 30.4159Z" fill="#032D5E"/>
    <path d="M23.3455 30.4266L23.1797 30.4287L23.5915 62.7474L23.7573 62.7453L23.3455 30.4266Z" fill="#032E5E"/>
    <path d="M23.2439 30.4281L23.0781 30.4302L23.4899 62.7489L23.6557 62.7468L23.2439 30.4281Z" fill="#032E5F"/>
    <path d="M23.1267 30.4251L22.9609 30.4272L23.3727 62.746L23.5385 62.7438L23.1267 30.4251Z" fill="#032E5F"/>
    <path d="M23.0252 30.4222L22.8594 30.4243L23.2712 62.743L23.4369 62.7409L23.0252 30.4222Z" fill="#032E5F"/>
    <path d="M22.908 30.4325L22.7422 30.4346L23.154 62.7533L23.3198 62.7512L22.908 30.4325Z" fill="#032E5F"/>
    <path d="M22.7986 30.4334L22.6328 30.4355L23.0446 62.7542L23.2104 62.7521L22.7986 30.4334Z" fill="#032E5F"/>
    <path d="M22.6892 30.4305L22.5234 30.4326L22.9352 62.7513L23.101 62.7492L22.6892 30.4305Z" fill="#032E5F"/>
    <path d="M22.5798 30.4325L22.4141 30.4346L22.8259 62.7533L22.9916 62.7512L22.5798 30.4325Z" fill="#032F5F"/>
    <path d="M22.4627 30.4378L22.2969 30.4399L22.7087 62.7586L22.8744 62.7565L22.4627 30.4378Z" fill="#032F60"/>
    <path d="M22.3611 30.4305L22.1953 30.4326L22.6071 62.7513L22.7729 62.7492L22.3611 30.4305Z" fill="#032F60"/>
    <path d="M22.2517 30.432L22.0859 30.4341L22.4977 62.7528L22.6635 62.7507L22.2517 30.432Z" fill="#032F60"/>
    <path d="M22.1423 30.4378L21.9766 30.4399L22.3884 62.7586L22.5541 62.7565L22.1423 30.4378Z" fill="#032F60"/>
    <path d="M22.0252 30.4432L21.8594 30.4453L22.2712 62.764L22.4369 62.7619L22.0252 30.4432Z" fill="#032F60"/>
    <path d="M21.9158 30.4364L21.75 30.4385L22.1618 62.7572L22.3276 62.7551L21.9158 30.4364Z" fill="#032F60"/>
    <path d="M21.8064 30.4422L21.6406 30.4443L22.0524 62.763L22.2182 62.7609L21.8064 30.4422Z" fill="#033061"/>
    <path d="M21.697 30.4432L21.5312 30.4453L21.943 62.764L22.1088 62.7619L21.697 30.4432Z" fill="#033061"/>
    <path d="M21.5798 30.4447L21.4141 30.4468L21.8259 62.7655L21.9916 62.7634L21.5798 30.4447Z" fill="#033061"/>
    <path d="M21.4705 30.4417L21.3047 30.4438L21.7165 62.7625L21.8823 62.7604L21.4705 30.4417Z" fill="#033061"/>
    <path d="M21.3611 30.452L21.1953 30.4541L21.6071 62.7728L21.7729 62.7707L21.3611 30.452Z" fill="#033061"/>
    <path d="M21.2439 30.453L21.0781 30.4551L21.4899 62.7738L21.6557 62.7717L21.2439 30.453Z" fill="#033062"/>
    <path d="M21.1423 30.45L20.9766 30.4521L21.3884 62.7708L21.5541 62.7687L21.1423 30.45Z" fill="#033162"/>
    <path d="M21.033 30.4476L20.8672 30.4497L21.279 62.7684L21.4448 62.7663L21.033 30.4476Z" fill="#033162"/>
    <path d="M20.9158 30.4574L20.75 30.4595L21.1618 62.7782L21.3276 62.7761L20.9158 30.4574Z" fill="#033162"/>
    <path d="M20.8064 30.4588L20.6406 30.4609L21.0524 62.7796L21.2182 62.7775L20.8064 30.4588Z" fill="#033162"/>
    <path d="M20.7048 30.4559L20.5391 30.458L20.9509 62.7767L21.1166 62.7746L20.7048 30.4559Z" fill="#033163"/>
    <path d="M20.5955 30.4574L20.4297 30.4595L20.8415 62.7782L21.0073 62.7761L20.5955 30.4574Z" fill="#033263"/>
    <path d="M20.4783 30.4637L20.3125 30.4658L20.7243 62.7845L20.8901 62.7824L20.4783 30.4637Z" fill="#033263"/>
    <path d="M20.3689 30.4559L20.2031 30.458L20.6149 62.7767L20.7807 62.7746L20.3689 30.4559Z" fill="#033263"/>
    <path d="M20.2673 30.4574L20.1016 30.4595L20.5134 62.7782L20.6791 62.7761L20.2673 30.4574Z" fill="#033263"/>
    <path d="M20.1502 30.4632L19.9844 30.4653L20.3962 62.784L20.5619 62.7819L20.1502 30.4632Z" fill="#033264"/>
    <path d="M20.033 30.4686L19.8672 30.4707L20.279 62.7894L20.4448 62.7873L20.033 30.4686Z" fill="#033364"/>
    <path d="M19.9314 30.4618L19.7656 30.4639L20.1774 62.7826L20.3432 62.7805L19.9314 30.4618Z" fill="#033364"/>
    <path d="M19.8142 30.4676L19.6484 30.4697L20.0602 62.7884L20.226 62.7863L19.8142 30.4676Z" fill="#043364"/>
    <path d="M19.7048 30.4691L19.5391 30.4712L19.9509 62.7899L20.1166 62.7878L19.7048 30.4691Z" fill="#043365"/>
    <path d="M19.6033 30.4657L19.4375 30.4678L19.8493 62.7865L20.0151 62.7844L19.6033 30.4657Z" fill="#043365"/>
    <path d="M19.4939 30.4676L19.3281 30.4697L19.7399 62.7884L19.9057 62.7863L19.4939 30.4676Z" fill="#043465"/>
    <path d="M19.3767 30.473L19.2109 30.4751L19.6227 62.7938L19.7885 62.7917L19.3767 30.473Z" fill="#043465"/>
    <path d="M19.2595 30.4788L19.0938 30.481L19.5055 62.7997L19.6713 62.7975L19.2595 30.4788Z" fill="#043465"/>
    <path d="M19.158 30.472L18.9922 30.4741L19.404 62.7928L19.5698 62.7907L19.158 30.472Z" fill="#043466"/>
    <path d="M19.0408 30.4808L18.875 30.4829L19.2868 62.8016L19.4526 62.7995L19.0408 30.4808Z" fill="#043466"/>
    <path d="M18.9314 30.4828L18.7656 30.4849L19.1774 62.8036L19.3432 62.8014L18.9314 30.4828Z" fill="#043466"/>
    <path d="M18.8142 30.4842L18.6484 30.4863L19.0602 62.805L19.226 62.8029L18.8142 30.4842Z" fill="#043566"/>
    <path d="M18.7127 30.4818L18.5469 30.4839L18.9587 62.8026L19.1244 62.8005L18.7127 30.4818Z" fill="#043566"/>
    <path d="M18.6033 30.4871L18.4375 30.4893L18.8493 62.808L19.0151 62.8058L18.6033 30.4871Z" fill="#043567"/>
    <path d="M18.4861 30.4886L18.3203 30.4907L18.7321 62.8094L18.8979 62.8073L18.4861 30.4886Z" fill="#043567"/>
    <path d="M18.3845 30.4818L18.2188 30.4839L18.6305 62.8026L18.7963 62.8005L18.3845 30.4818Z" fill="#043567"/>
    <path d="M18.283 30.4828L18.1172 30.4849L18.529 62.8036L18.6948 62.8014L18.283 30.4828Z" fill="#043667"/>
    <path d="M18.1502 30.4925L17.9844 30.4946L18.3962 62.8133L18.5619 62.8112L18.1502 30.4925Z" fill="#043667"/>
    <path d="M18.0408 30.494L17.875 30.4961L18.2868 62.8148L18.4526 62.8127L18.0408 30.494Z" fill="#043668"/>
    <path d="M17.9392 30.4871L17.7734 30.4893L18.1852 62.808L18.351 62.8058L17.9392 30.4871Z" fill="#043668"/>
    <path d="M17.8298 30.4925L17.6641 30.4946L18.0759 62.8133L18.2416 62.8112L17.8298 30.4925Z" fill="#043668"/>
    <path d="M17.7127 30.494L17.5469 30.4961L17.9587 62.8148L18.1244 62.8127L17.7127 30.494Z" fill="#043768"/>
    <path d="M17.6111 30.4915L17.4453 30.4937L17.8571 62.8124L18.0229 62.8102L17.6111 30.4915Z" fill="#043769"/>
    <path d="M17.5095 30.4925L17.3438 30.4946L17.7555 62.8133L17.9213 62.8112L17.5095 30.4925Z" fill="#043769"/>
    <path d="M17.3845 30.4984L17.2188 30.5005L17.6305 62.8192L17.7963 62.8171L17.3845 30.4984Z" fill="#043769"/>
    <path d="M17.2673 30.5037L17.1016 30.5059L17.5134 62.8246L17.6791 62.8224L17.2673 30.5037Z" fill="#043769"/>
    <path d="M17.1658 30.4969L17 30.499L17.4118 62.8177L17.5776 62.8156L17.1658 30.4969Z" fill="#043869"/>
    <path d="M17.0486 30.5067L16.8828 30.5088L17.2946 62.8275L17.4604 62.8254L17.0486 30.5067Z" fill="#04386A"/>
    <path d="M16.9392 30.5081L16.7734 30.5103L17.1852 62.8289L17.351 62.8268L16.9392 30.5081Z" fill="#04386A"/>
    <path d="M16.8377 30.5013L16.6719 30.5034L17.0837 62.8221L17.2494 62.82L16.8377 30.5013Z" fill="#04386A"/>
    <path d="M16.7361 30.5023L16.5703 30.5044L16.9821 62.8231L17.1479 62.821L16.7361 30.5023Z" fill="#04386A"/>
    <path d="M16.6033 30.512L16.4375 30.5142L16.8493 62.8329L17.0151 62.8308L16.6033 30.512Z" fill="#04396A"/>
    <path d="M16.5017 30.5135L16.3359 30.5156L16.7477 62.8343L16.9135 62.8322L16.5017 30.5135Z" fill="#04396B"/>
    <path d="M16.3923 30.5111L16.2266 30.5132L16.6384 62.8319L16.8041 62.8298L16.3923 30.5111Z" fill="#04396B"/>
    <path d="M16.2908 30.5081L16.125 30.5103L16.5368 62.8289L16.7026 62.8268L16.2908 30.5081Z" fill="#04396B"/>
    <path d="M16.1658 30.5179L16 30.52L16.4118 62.8387L16.5776 62.8366L16.1658 30.5179Z" fill="#04396B"/>
    <path d="M16.0564 30.5194L15.8906 30.5215L16.3024 62.8402L16.4682 62.8381L16.0564 30.5194Z" fill="#04396B"/>
    <path d="M15.9548 30.512L15.7891 30.5142L16.2009 62.8329L16.3666 62.8307L15.9548 30.512Z" fill="#043A6C"/>
    <path d="M15.8377 30.5179L15.6719 30.52L16.0837 62.8387L16.2494 62.8366L15.8377 30.5179Z" fill="#053A6C"/>
    <path d="M15.7283 30.5194L15.5625 30.5215L15.9743 62.8402L16.1401 62.8381L15.7283 30.5194Z" fill="#053A6C"/>
    <path d="M15.6267 30.5164L15.4609 30.5186L15.8727 62.8373L16.0385 62.8351L15.6267 30.5164Z" fill="#053A6C"/>
    <path d="M15.5173 30.5179L15.3516 30.52L15.7634 62.8387L15.9291 62.8366L15.5173 30.5179Z" fill="#053A6C"/>
    <path d="M15.3923 30.5233L15.2266 30.5254L15.6384 62.8441L15.8041 62.842L15.3923 30.5233Z" fill="#053B6D"/>
    <path d="M15.283 30.5286L15.1172 30.5308L15.529 62.8495L15.6948 62.8473L15.283 30.5286Z" fill="#053B6D"/>
    <path d="M15.1814 30.5223L15.0156 30.5244L15.4274 62.8431L15.5932 62.841L15.1814 30.5223Z" fill="#053B6D"/>
    <path d="M15.0642 30.5321L14.8984 30.5342L15.3102 62.8529L15.476 62.8508L15.0642 30.5321Z" fill="#053B6D"/>
    <path d="M14.9548 30.533L14.7891 30.5352L15.2009 62.8539L15.3666 62.8518L14.9548 30.533Z" fill="#053B6E"/>
    <path d="M14.8533 30.5267L14.6875 30.5288L15.0993 62.8475L15.2651 62.8454L14.8533 30.5267Z" fill="#053C6E"/>
    <path d="M14.7517 30.5277L14.5859 30.5298L14.9977 62.8485L15.1635 62.8464L14.7517 30.5277Z" fill="#053C6E"/>
    <path d="M14.6189 30.5374L14.4531 30.5396L14.8649 62.8582L15.0307 62.8561L14.6189 30.5374Z" fill="#053C6E"/>
    <path d="M14.5095 30.5389L14.3438 30.541L14.7555 62.8597L14.9213 62.8576L14.5095 30.5389Z" fill="#053C6E"/>
    <path d="M14.4002 30.5365L14.2344 30.5386L14.6462 62.8573L14.8119 62.8552L14.4002 30.5365Z" fill="#053C6F"/>
    <path d="M14.2908 30.5374L14.125 30.5396L14.5368 62.8582L14.7026 62.8561L14.2908 30.5374Z" fill="#053D6F"/>
    <path d="M14.1814 30.5428L14.0156 30.5449L14.4274 62.8636L14.5932 62.8615L14.1814 30.5428Z" fill="#053D6F"/>
    <path d="M14.0642 30.5443L13.8984 30.5464L14.3102 62.8651L14.476 62.863L14.0642 30.5443Z" fill="#053D6F"/>
    <path d="M13.9627 30.5374L13.7969 30.5396L14.2087 62.8582L14.3744 62.8561L13.9627 30.5374Z" fill="#053D6F"/>
    <path d="M13.8455 30.5477L13.6797 30.5498L14.0915 62.8685L14.2573 62.8664L13.8455 30.5477Z" fill="#053D70"/>
    <path d="M13.7361 30.5492L13.5703 30.5513L13.9821 62.87L14.1479 62.8679L13.7361 30.5492Z" fill="#053D70"/>
    <path d="M13.6345 30.5423L13.4688 30.5444L13.8805 62.8631L14.0463 62.861L13.6345 30.5423Z" fill="#053E70"/>
    <path d="M13.5252 30.5438L13.3594 30.5459L13.7712 62.8646L13.937 62.8625L13.5252 30.5438Z" fill="#053E70"/>
    <path d="M13.408 30.5492L13.2422 30.5513L13.654 62.87L13.8198 62.8679L13.408 30.5492Z" fill="#053E70"/>
    <path d="M13.2986 30.5506L13.1328 30.5527L13.5446 62.8714L13.7104 62.8693L13.2986 30.5506Z" fill="#053E71"/>
    <path d="M13.1892 30.5482L13.0234 30.5503L13.4352 62.869L13.601 62.8669L13.1892 30.5482Z" fill="#053E71"/>
    <path d="M13.072 30.557L12.9062 30.5591L13.318 62.8778L13.4838 62.8757L13.072 30.557Z" fill="#053F71"/>
    <path d="M12.9627 30.5584L12.7969 30.5605L13.2087 62.8792L13.3744 62.8771L12.9627 30.5584Z" fill="#053F71"/>
    <path d="M12.8611 30.5516L12.6953 30.5537L13.1071 62.8724L13.2729 62.8703L12.8611 30.5516Z" fill="#053F72"/>
    <path d="M12.7517 30.5526L12.5859 30.5547L12.9977 62.8734L13.1635 62.8713L12.7517 30.5526Z" fill="#053F72"/>
    <path d="M12.6267 30.5633L12.4609 30.5654L12.8727 62.8841L13.0385 62.882L12.6267 30.5633Z" fill="#053F72"/>
    <path d="M12.5252 30.5604L12.3594 30.5625L12.7712 62.8812L12.9369 62.8791L12.5252 30.5604Z" fill="#054072"/>
    <path d="M12.4158 30.5619L12.25 30.564L12.6618 62.8827L12.8276 62.8805L12.4158 30.5619Z" fill="#054072"/>
    <path d="M12.2986 30.5672L12.1328 30.5693L12.5446 62.888L12.7104 62.8859L12.2986 30.5672Z" fill="#054073"/>
    <path d="M12.1892 30.5687L12.0234 30.5708L12.4352 62.8895L12.601 62.8874L12.1892 30.5687Z" fill="#054073"/>
    <path d="M12.0955 30.5619L11.9297 30.564L12.3415 62.8827L12.5073 62.8805L12.0955 30.5619Z" fill="#054073"/>
    <path d="M11.9783 30.5633L11.8125 30.5654L12.2243 62.8841L12.3901 62.882L11.9783 30.5633Z" fill="#054173"/>
    <path d="M11.8611 30.5726L11.6953 30.5747L12.1071 62.8934L12.2729 62.8913L11.8611 30.5726Z" fill="#064173"/>
    <path d="M11.7517 30.5741L11.5859 30.5762L11.9977 62.8949L12.1635 62.8928L11.7517 30.5741Z" fill="#064174"/>
    <path d="M11.6423 30.5677L11.4766 30.5698L11.8884 62.8885L12.0541 62.8864L11.6423 30.5677Z" fill="#064174"/>
    <path d="M11.5252 30.5731L11.3594 30.5752L11.7712 62.8939L11.9369 62.8918L11.5252 30.5731Z" fill="#064174"/>
    <path d="M11.4236 30.5745L11.2578 30.5767L11.6696 62.8954L11.8354 62.8932L11.4236 30.5745Z" fill="#064274"/>
    <path d="M11.3142 30.576L11.1484 30.5781L11.5602 62.8968L11.726 62.8947L11.3142 30.576Z" fill="#064274"/>
    <path d="M11.2048 30.5731L11.0391 30.5752L11.4509 62.8939L11.6166 62.8918L11.2048 30.5731Z" fill="#064275"/>
    <path d="M11.0877 30.5785L10.9219 30.5806L11.3337 62.8993L11.4994 62.8971L11.0877 30.5785Z" fill="#064275"/>
    <path d="M10.9783 30.5799L10.8125 30.582L11.2243 62.9007L11.3901 62.8986L10.9783 30.5799Z" fill="#064275"/>
    <path d="M10.8689 30.5775L10.7031 30.5796L11.1149 62.8983L11.2807 62.8962L10.8689 30.5775Z" fill="#064275"/>
    <path d="M10.7595 30.5789L10.5938 30.5811L11.0055 62.8998L11.1713 62.8976L10.7595 30.5789Z" fill="#064376"/>
    <path d="M10.6423 30.5882L10.4766 30.5903L10.8884 62.909L11.0541 62.9069L10.6423 30.5882Z" fill="#064376"/>
    <path d="M10.5408 30.5858L10.375 30.5879L10.7868 62.9066L10.9526 62.9045L10.5408 30.5858Z" fill="#064376"/>
    <path d="M10.4236 30.5868L10.2578 30.5889L10.6696 62.9076L10.8354 62.9055L10.4236 30.5868Z" fill="#064376"/>
    <path d="M10.3142 30.5926L10.1484 30.5947L10.5602 62.9134L10.726 62.9113L10.3142 30.5926Z" fill="#064376"/>
    <path d="M10.197 30.5936L10.0312 30.5957L10.443 62.9144L10.6088 62.9123L10.197 30.5936Z" fill="#064477"/>
    <path d="M10.0955 30.5872L9.92969 30.5894L10.3415 62.9081L10.5073 62.9059L10.0955 30.5872Z" fill="#064477"/>
    <path d="M9.98609 30.5887L9.82031 30.5908L10.2321 62.9095L10.3979 62.9074L9.98609 30.5887Z" fill="#064477"/>
    <path d="M9.86891 30.5975L9.70312 30.5996L10.1149 62.9183L10.2807 62.9162L9.86891 30.5975Z" fill="#064477"/>
    <path d="M9.75954 30.599L9.59375 30.6011L10.0055 62.9198L10.1713 62.9177L9.75954 30.599Z" fill="#064477"/>
    <path d="M9.65015 30.5926L9.48438 30.5947L9.89617 62.9134L10.0619 62.9113L9.65015 30.5926Z" fill="#064376"/>
    <path d="M9.54078 30.6019L9.375 30.604L9.78679 62.9227L9.95257 62.9206L9.54078 30.6019Z" fill="#064376"/>
    <path d="M9.4314 30.5995L9.26562 30.6016L9.67742 62.9203L9.8432 62.9181L9.4314 30.5995Z" fill="#064376"/>
    <path d="M9.32203 30.6009L9.15625 30.603L9.56804 62.9217L9.73382 62.9196L9.32203 30.6009Z" fill="#064376"/>
    <path d="M9.21265 30.599L9.04688 30.6011L9.45867 62.9198L9.62445 62.9177L9.21265 30.599Z" fill="#064376"/>
    <path d="M9.10328 30.6038L8.9375 30.606L9.34929 62.9247L9.51507 62.9225L9.10328 30.6038Z" fill="#064275"/>
    <path d="M8.98609 30.6053L8.82031 30.6074L9.2321 62.9261L9.39788 62.924L8.98609 30.6053Z" fill="#064275"/>
    <path d="M8.87672 30.6024L8.71094 30.6045L9.12273 62.9232L9.28851 62.9211L8.87672 30.6024Z" fill="#064275"/>
    <path d="M8.77515 30.6043L8.60938 30.6064L9.02117 62.9251L9.18695 62.923L8.77515 30.6043Z" fill="#064275"/>
    <path d="M8.65015 30.6131L8.48438 30.6152L8.89617 62.9339L9.06195 62.9318L8.65015 30.6131Z" fill="#064274"/>
    <path d="M8.54859 30.6112L8.38281 30.6133L8.7946 62.932L8.96038 62.9299L8.54859 30.6112Z" fill="#064274"/>
    <path d="M8.43922 30.6087L8.27344 30.6108L8.68523 62.9295L8.85101 62.9274L8.43922 30.6087Z" fill="#064174"/>
    <path d="M8.32203 30.6175L8.15625 30.6196L8.56804 62.9383L8.73382 62.9362L8.32203 30.6175Z" fill="#064174"/>
    <path d="M8.21265 30.6185L8.04688 30.6206L8.45867 62.9393L8.62445 62.9372L8.21265 30.6185Z" fill="#064174"/>
    <path d="M8.10328 30.6161L7.9375 30.6182L8.34929 62.9369L8.51507 62.9347L8.10328 30.6161Z" fill="#064173"/>
    <path d="M7.99391 30.6175L7.82812 30.6196L8.23992 62.9383L8.4057 62.9362L7.99391 30.6175Z" fill="#054173"/>
    <path d="M7.88454 30.6229L7.71875 30.625L8.13054 62.9437L8.29633 62.9416L7.88454 30.6229Z" fill="#054073"/>
    <path d="M7.76734 30.6244L7.60156 30.6265L8.01335 62.9452L8.17913 62.943L7.76734 30.6244Z" fill="#054073"/>
    <path d="M7.66578 30.6185L7.5 30.6206L7.91179 62.9393L8.07757 62.9372L7.66578 30.6185Z" fill="#054073"/>
    <path d="M7.54859 30.6278L7.38281 30.6299L7.7946 62.9486L7.96038 62.9465L7.54859 30.6278Z" fill="#054072"/>
    <path d="M7.44703 30.6248L7.28125 30.627L7.69304 62.9457L7.85882 62.9435L7.44703 30.6248Z" fill="#054072"/>
    <path d="M7.33765 30.6224L7.17188 30.6245L7.58367 62.9432L7.74945 62.9411L7.33765 30.6224Z" fill="#053F72"/>
    <path d="M7.22828 30.6239L7.0625 30.626L7.47429 62.9447L7.64007 62.9426L7.22828 30.6239Z" fill="#053F72"/>
    <path d="M7.11109 30.6292L6.94531 30.6313L7.3571 62.95L7.52288 62.9479L7.11109 30.6292Z" fill="#053F72"/>
    <path d="M7.00172 30.6307L6.83594 30.6328L7.24773 62.9515L7.41351 62.9494L7.00172 30.6307Z" fill="#053F71"/>
    <path d="M6.89234 30.6283L6.72656 30.6304L7.13835 62.9491L7.30413 62.947L6.89234 30.6283Z" fill="#053F71"/>
    <path d="M6.78297 30.6297L6.61719 30.6318L7.02898 62.9505L7.19476 62.9484L6.78297 30.6297Z" fill="#053E71"/>
    <path d="M6.66578 30.6351L6.5 30.6372L6.91179 62.9559L7.07757 62.9538L6.66578 30.6351Z" fill="#053E71"/>
    <path d="M6.5564 30.6366L6.39062 30.6387L6.80242 62.9574L6.9682 62.9553L6.5564 30.6366Z" fill="#053E70"/>
    <path d="M6.45484 30.6341L6.28906 30.6362L6.70085 62.9549L6.86663 62.9528L6.45484 30.6341Z" fill="#053E70"/>
    <path d="M6.33765 30.6429L6.17188 30.645L6.58367 62.9637L6.74945 62.9616L6.33765 30.6429Z" fill="#053E70"/>
    <path d="M6.2341 30.6351L6.14844 30.6362L6.56023 62.9549L6.64589 62.9538L6.2341 30.6351Z" fill="#053D70"/>
  </g>
  <path fill-rule="evenodd" clip-rule="evenodd" d="M44.6097 30.0321L44.6995 30.3304L54.0052 52.1727C54.1724 51.9889 55.0626 49.8821 55.2523 49.462L58.9458 41.1951C60.1374 38.5724 61.4188 35.5088 62.6234 32.9667C62.82 32.5523 63.7926 30.4674 63.8347 30.1674L63.817 29.9769C63.7654 29.7274 62.2089 27.5252 61.9694 27.1898C61.3079 26.2629 60.6001 25.3597 59.9011 24.5723C55.8248 19.9805 52.367 19.4796 48.3483 24.4811C47.0098 26.147 45.7929 28.0573 44.6094 30.0318" fill="#0289B8"/>
  <mask id="mask2_348_904" style="mask-type:luminance" maskUnits="userSpaceOnUse" x="34" y="30" width="21" height="32">
    <path d="M34.7812 52.2351C35.0252 52.8736 37.1242 55.699 37.6654 56.4188C39.1398 58.3792 41.706 61.1719 44.3371 61.4275C46.9934 61.6856 49.1354 59.3393 50.2399 57.9947C50.9885 57.0833 51.5718 56.2591 52.2178 55.2846C52.3467 55.0899 53.889 52.5581 54.0288 52.4958L54.0235 52.1733L44.7177 30.3311C44.5306 30.3629 44.57 30.3871 44.4727 30.6197L37.2609 46.7823C37.0109 47.3689 34.9296 52.0746 34.7815 52.2351" fill="white"/>
  </mask>
  <g mask="url(#mask2_348_904)">
    <path d="M54.0285 30.3311H34.7812V61.6856H54.0285V30.3311Z" fill="url(#paint0_linear_348_904)"/>
  </g>
  <path fill-rule="evenodd" clip-rule="evenodd" d="M25.4559 30.1445L25.4531 30.3904L30.0856 41.2171C30.8583 43.025 31.6221 44.823 32.3843 46.6345L34.4057 51.3915C34.518 51.6618 34.6679 51.8797 34.5986 52.1265C34.7642 52.1245 34.6291 51.9859 34.763 52.2346C34.9114 52.074 36.9924 47.3684 37.2424 46.7817L44.4542 30.6191C44.5515 30.3865 44.5121 30.3624 44.6993 30.3305L44.6094 30.0322C44.4281 29.908 44.4384 29.8581 44.3247 29.6765C44.2451 29.5495 44.1819 29.4613 44.1051 29.3454C42.2819 26.5915 38.6545 21.2959 34.9352 21.1661C32.3 21.0744 30.2428 23.4772 29.2251 24.706C28.5289 25.5461 27.9381 26.4102 27.2752 27.3875C26.9625 27.8486 26.6664 28.3141 26.3752 28.8023C26.2197 29.0632 26.0888 29.267 25.9372 29.5209C25.8443 29.6762 25.7933 29.7591 25.7101 29.9013C25.5385 30.1946 25.5593 30.1478 25.4562 30.1445" fill="#064477"/>
  <path fill-rule="evenodd" clip-rule="evenodd" d="M7.27916 0.193617C4.81694 0.453951 3.4748 1.39382 2.24466 2.68578C1.16645 3.81833 0.170859 6.03297 0.389883 8.29751C0.76472 12.1679 4.07725 15.5117 8.50792 15.123C15.1674 14.5392 17.6759 6.24063 12.8174 2.03758C11.556 0.946339 9.57698 -0.0492507 7.27889 0.193617" fill="#022858"/>
  <path fill-rule="evenodd" clip-rule="evenodd" d="M77.9075 0.203578C75.5919 0.479992 74.0016 1.5302 72.9586 2.73317C71.8094 4.0584 70.9284 5.97029 71.1521 8.4181C71.5075 12.3112 75.0557 15.5516 79.3907 15.1116C83.2982 14.7149 86.394 11.3292 86.0607 6.934C85.7763 3.17981 82.1867 -0.307386 77.9075 0.203856" fill="#96C9DC"/>
  <path fill-rule="evenodd" clip-rule="evenodd" d="M42.5239 0.204374C38.2712 0.703694 35.4034 4.28516 35.8027 8.39034C36.1778 12.2465 39.5993 15.5605 43.9991 15.1116C47.829 14.721 51.1191 11.2798 50.6675 6.89875C50.2405 2.75836 46.4899 -0.261399 42.5239 0.204097" fill="#064477"/>
  <defs>
    <linearGradient id="paint0_linear_348_904" x1="54.0285" y1="46.0082" x2="34.7812" y2="46.0082" gradientUnits="userSpaceOnUse">
      <stop stop-color="#064477"/>
      <stop offset="1" stop-color="#0289B8"/>
    </linearGradient>
  </defs>
</svg>