<svg xmlns="http://www.w3.org/2000/svg" width="80" height="67" viewBox="0 0 80 67" fill="none">
<path d="M31.1196 14.6929C31.1196 22.0635 37.3396 23.3441 39.7083 27.3447C42.072 23.3441 48.2969 22.0587 48.2969 14.6929C48.2969 7.87112 41.2103 2.34918 39.7083 -0.00016669C38.211 2.34918 31.1196 7.87112 31.1196 14.6929Z" fill="#66B3D1"/>
<path d="M72.4722 67C78.9473 64.8432 83.5883 51.7629 71.6538 48.9707C69.9929 48.5807 64.9957 47.5216 64.9957 47.5216C64.9957 47.5216 65.376 36.4681 56.1519 36.4681C49.3109 36.4681 49.3831 42.1633 49.3831 42.1633C49.3831 42.1633 55.0591 41.4556 55.0591 48.8984C55.0591 51.2959 52.1224 53.5153 49.2724 53.5153C44.6892 53.5153 41.6322 49.5339 41.6322 45.2926C41.6322 38.3697 46.4705 31.1869 54.7317 30.3299C62.1216 29.5645 65.1016 33.4544 65.1016 33.4544C65.1016 33.4544 65.3182 24.134 55.7668 22.1216C49.903 20.8892 40.9293 27.3066 39.7016 33.7817C38.474 27.3114 29.5003 20.8892 23.6365 22.1216C14.0851 24.1292 14.3017 33.4544 14.3017 33.4544C14.3017 33.4544 17.2817 29.5645 24.6716 30.3299C32.9328 31.1869 37.7711 38.3697 37.7711 45.2926C37.7711 49.5339 34.7141 53.5153 30.1309 53.5153C27.2809 53.5153 24.3442 51.3008 24.3442 48.8984C24.3442 41.4556 30.0202 42.1633 30.0202 42.1633C30.0202 42.1633 30.0924 36.4681 23.2514 36.4681C14.0321 36.4681 14.4076 47.5216 14.4076 47.5216C14.4076 47.5216 9.41044 48.5855 7.74953 48.9707C-4.18497 51.7629 0.455948 64.8432 6.9311 67C6.9311 63.9478 11.3361 60.5441 15.9723 60.5441C24.1228 60.5441 24.3394 64.2655 31.1082 64.2655C37.8771 64.2655 39.2732 60.1012 39.6968 58.084C40.1205 60.1012 41.7718 64.2655 48.2854 64.2655C54.7991 64.2655 55.2709 60.5441 63.4214 60.5441C68.0575 60.5441 72.4626 63.9478 72.4626 67L72.4722 67Z" fill="#66B3D1"/>
</svg>