<svg xmlns="http://www.w3.org/2000/svg" width="79" height="67" viewBox="0 0 79 67" fill="none">
<path d="M39.3333 39.6556C36.9695 43.6562 30.7446 44.9416 30.7446 52.3074C30.7446 59.1292 37.8312 64.6511 39.3333 67.0005C40.8305 64.6511 47.9219 59.1292 47.9219 52.3074C47.9219 44.9368 41.7019 43.6562 39.3333 39.6556Z" fill="#97C8DB"/>
<path d="M72.0954 0.00561084C72.0954 3.05784 67.6904 6.46151 63.0542 6.46151C54.9037 6.46151 54.6871 2.74009 47.9183 2.74009C41.1494 2.74009 39.7533 6.90442 39.3296 8.92158C38.906 6.90442 37.2547 2.74009 30.741 2.74009C24.2274 2.74009 23.7556 6.4615 15.605 6.4615C10.9689 6.4615 6.56392 3.05783 6.56392 0.00560512C0.0887641 2.16238 -4.55216 15.2427 7.38234 18.0349C9.04325 18.4249 14.0404 19.484 14.0404 19.484C14.0404 19.484 13.6601 30.5375 22.8842 30.5375C29.7252 30.5375 29.653 24.8423 29.653 24.8423C29.653 24.8423 23.977 25.55 23.977 18.1071C23.977 15.7097 26.9137 13.4903 29.7637 13.4903C34.3469 13.4903 37.4039 17.4717 37.4039 21.713C37.4039 28.6359 32.5656 35.8187 24.3044 36.6757C16.9145 37.4411 13.9345 33.5512 13.9345 33.5512C13.9345 33.5512 13.7179 42.8716 23.2693 44.884C29.1331 46.1164 38.1068 39.699 39.3345 33.2239C40.5621 39.6942 49.5358 46.1164 55.3996 44.884C64.951 42.8764 64.7344 33.5512 64.7344 33.5512C64.7344 33.5512 61.7544 37.4411 54.3645 36.6757C46.1033 35.8187 41.265 28.6359 41.265 21.713C41.265 17.4717 44.322 13.4903 48.9052 13.4903C51.7552 13.4903 54.6919 15.7048 54.6919 18.1071C54.6919 25.55 49.0159 24.8423 49.0159 24.8423C49.0159 24.8423 48.9437 30.5375 55.7847 30.5375C65.004 30.5375 64.6285 19.484 64.6285 19.484C64.6285 19.484 69.6257 18.4201 71.2866 18.0349C83.2211 15.2427 78.5802 2.16239 72.105 0.00561085L72.0954 0.00561084Z" fill="#97C8DB"/>
</svg>