<svg xmlns="http://www.w3.org/2000/svg" width="28" height="29" viewBox="0 0 28 29" fill="none">
<path d="M20.4487 17.5408C20.4487 18.7168 20.7833 19.1858 21.6583 19.1858C23.6085 19.1858 24.8503 16.7008 24.8503 12.568C24.8503 6.25124 20.2471 3.22724 14.5001 3.22724C8.58789 3.22724 3.21049 7.19204 3.21049 14.6848C3.21049 21.8416 7.91449 25.7392 15.1385 25.7392C17.5913 25.7392 19.2377 25.4704 21.7563 24.6304L22.2967 26.8802C19.8103 27.688 17.1531 27.9218 15.1049 27.9218C5.62969 27.9218 0.554688 22.7138 0.554688 14.6834C0.554688 6.58584 6.43609 1.07544 14.5337 1.07544C22.9673 1.07544 27.4347 6.11544 27.4347 12.2978C27.4347 17.5394 25.7897 21.5378 20.6153 21.5378C18.2619 21.5378 16.7177 20.597 16.5161 18.5124C15.9113 20.8308 14.2985 21.5378 12.1131 21.5378C9.18989 21.5378 6.73709 19.2852 6.73709 14.7506C6.73709 10.181 8.88889 7.35864 12.7529 7.35864C14.8025 7.35864 16.0793 8.16504 16.6477 9.44184L17.6235 7.66104H20.4459V17.5408H20.4487ZM16.3173 13.1056C16.3173 11.259 14.9383 10.4848 13.7959 10.4848C12.5527 10.4848 11.1765 11.4914 11.1765 14.4496C11.1765 16.8016 12.2181 18.112 13.7959 18.112C14.9047 18.112 16.3173 17.4064 16.3173 15.4576V13.1056Z" fill="#064376"/>
</svg>