<svg xmlns="http://www.w3.org/2000/svg" width="12" height="13" viewBox="0 0 12 13" fill="none">
<path d="M6.79565 6.48399L4.19512 3.88346C4.14315 3.83613 4.1012 3.77885 4.07175 3.71502C4.04231 3.65119 4.02597 3.5821 4.02371 3.51184C4.02145 3.44158 4.0333 3.37159 4.05857 3.30599C4.08384 3.2404 4.12202 3.18054 4.17083 3.12996C4.21965 3.07938 4.27812 3.03911 4.34278 3.01153C4.40744 2.98396 4.47697 2.96963 4.54727 2.9694C4.61756 2.96918 4.68719 2.98306 4.75202 3.01022C4.81685 3.03739 4.87558 3.07728 4.92472 3.12755L4.93752 3.14035L7.90996 6.11208C8.00849 6.21063 8.06384 6.34428 8.06385 6.48364C8.06385 6.62299 8.00849 6.75664 7.90996 6.85519L4.93823 9.82692C4.89028 9.87656 4.83302 9.91626 4.76972 9.94376C4.70642 9.97127 4.63833 9.98604 4.56933 9.98723C4.50032 9.98842 4.43176 9.976 4.36755 9.95069C4.30335 9.92538 4.24475 9.88768 4.19512 9.83972C4.14549 9.79177 4.10578 9.73451 4.07828 9.67121C4.05077 9.60792 4.036 9.53982 4.03482 9.47082C4.03363 9.40181 4.04604 9.33325 4.07135 9.26905C4.09666 9.20484 4.13437 9.14625 4.18232 9.09661L4.19512 9.08381L6.79565 6.48399Z" fill="#022656" stroke="#022656" stroke-width="0.355556"/>
</svg>