<svg xmlns="http://www.w3.org/2000/svg" width="23" height="33" viewBox="0 0 23 33" fill="none">
  <path d="M11.5 0.5C5.15919 0.5 0 5.40375 0 11.429C0 14.2984 1.31603 18.1142 3.91144 22.7708C5.99581 26.5095 8.40722 29.8904 9.66144 31.5726C9.87337 31.86 10.1505 32.0938 10.4703 32.2549C10.7901 32.416 11.1436 32.5 11.5022 32.5C11.8607 32.5 12.2142 32.416 12.534 32.2549C12.8538 32.0938 13.1309 31.86 13.3429 31.5726C14.5949 29.8904 17.0085 26.5095 19.0929 22.7708C21.684 18.1157 23 14.2998 23 11.429C23 5.40375 17.8408 0.5 11.5 0.5ZM11.5 16.5006C10.5902 16.5006 9.70084 16.2325 8.94438 15.7301C8.18791 15.2278 7.59832 14.5138 7.25015 13.6785C6.90199 12.8431 6.8109 11.9239 6.98839 11.0371C7.16588 10.1503 7.60399 9.33574 8.24731 8.69639C8.89063 8.05704 9.71027 7.62164 10.6026 7.44524C11.4949 7.26884 12.4198 7.35938 13.2603 7.70539C14.1009 8.0514 14.8193 8.63736 15.3248 9.38915C15.8302 10.141 16.1 11.0248 16.1 11.929C16.0987 13.1411 15.6136 14.3031 14.7512 15.1601C13.8888 16.0172 12.7196 16.4993 11.5 16.5006Z" fill="#012454"/>
</svg>