<svg xmlns="http://www.w3.org/2000/svg" width="28" height="29" viewBox="0 0 28 29" fill="none">
  <path d="M15.2026 2.83444C16.054 2.83118 16.9053 2.83973 17.7564 2.86011L17.9828 2.86828C18.2441 2.87761 18.5019 2.88928 18.8134 2.90328C20.0548 2.96161 20.9018 3.15761 21.6449 3.44578C22.4149 3.74211 23.0636 4.14344 23.7123 4.79211C24.3054 5.37498 24.7644 6.08005 25.0574 6.85828C25.3456 7.60144 25.5416 8.44961 25.5999 9.69094C25.6139 10.0013 25.6256 10.2603 25.6349 10.5216L25.6419 10.7479C25.6627 11.5987 25.6716 12.4496 25.6688 13.3006L25.6699 14.1709V15.6993C25.6728 16.5506 25.6639 17.402 25.6431 18.2531L25.6361 18.4794C25.6268 18.7408 25.6151 18.9986 25.6011 19.3101C25.5428 20.5514 25.3444 21.3984 25.0574 22.1416C24.7654 22.9207 24.3062 23.6263 23.7123 24.2089C23.1289 24.802 22.4235 25.261 21.6449 25.5541C20.9018 25.8423 20.0548 26.0383 18.8134 26.0966C18.5019 26.1106 18.2441 26.1223 17.9828 26.1316L17.7564 26.1386C16.9053 26.1593 16.054 26.1683 15.2026 26.1654L14.3323 26.1666H12.8051C11.9537 26.1695 11.1024 26.1605 10.2513 26.1398L10.0249 26.1328C9.74799 26.1227 9.47109 26.1111 9.19428 26.0978C7.95294 26.0394 7.10594 25.8411 6.36161 25.5541C5.58307 25.2617 4.87789 24.8026 4.29544 24.2089C3.70166 23.6259 3.24221 22.9204 2.94911 22.1416C2.66094 21.3984 2.46494 20.5514 2.40661 19.3101C2.39362 19.0333 2.38195 18.7564 2.37161 18.4794L2.36578 18.2531C2.34427 17.402 2.33455 16.5506 2.33661 15.6993V13.3006C2.33335 12.4496 2.34191 11.5987 2.36228 10.7479L2.37044 10.5216C2.37978 10.2603 2.39144 10.0013 2.40544 9.69094C2.46378 8.44844 2.65978 7.60261 2.94794 6.85828C3.24121 6.07967 3.70157 5.3748 4.29661 4.79328C4.87865 4.19915 5.5834 3.73928 6.36161 3.44578C7.10594 3.15761 7.95178 2.96161 9.19428 2.90328L10.0249 2.86828L10.2513 2.86244C11.102 2.84095 11.953 2.83122 12.8039 2.83328L15.2026 2.83444ZM14.0033 8.66778C13.2304 8.65684 12.463 8.79964 11.7457 9.08786C11.0285 9.37607 10.3757 9.80397 9.82526 10.3467C9.27483 10.8894 8.83774 11.5361 8.53941 12.2492C8.24108 12.9623 8.08745 13.7275 8.08745 14.5005C8.08745 15.2735 8.24108 16.0388 8.53941 16.7519C8.83774 17.465 9.27483 18.1117 9.82526 18.6544C10.3757 19.1971 11.0285 19.625 11.7457 19.9132C12.463 20.2014 13.2304 20.3442 14.0033 20.3333C15.5504 20.3333 17.0341 19.7187 18.1281 18.6247C19.222 17.5308 19.8366 16.047 19.8366 14.4999C19.8366 12.9528 19.222 11.4691 18.1281 10.3752C17.0341 9.28119 15.5504 8.66778 14.0033 8.66778ZM14.0033 11.0011C14.4682 10.9925 14.9302 11.0767 15.3622 11.2487C15.7942 11.4207 16.1877 11.677 16.5195 12.0027C16.8514 12.3285 17.115 12.7171 17.295 13.1458C17.4749 13.5746 17.5677 14.0349 17.5678 14.4999C17.5678 14.9649 17.4752 15.4253 17.2954 15.8541C17.1156 16.2829 16.8521 16.6716 16.5204 16.9975C16.1886 17.3233 15.7953 17.5798 15.3633 17.7519C14.9313 17.924 14.4694 18.0084 14.0044 17.9999C13.0762 17.9999 12.1859 17.6312 11.5296 16.9748C10.8732 16.3184 10.5044 15.4282 10.5044 14.4999C10.5044 13.5717 10.8732 12.6814 11.5296 12.0251C12.1859 11.3687 13.0762 10.9999 14.0044 10.9999L14.0033 11.0011ZM20.1283 6.91778C19.7519 6.93284 19.396 7.09295 19.135 7.36458C18.874 7.6362 18.7283 7.99827 18.7283 8.37494C18.7283 8.75162 18.874 9.11369 19.135 9.38531C19.396 9.65693 19.7519 9.81705 20.1283 9.83211C20.5151 9.83211 20.886 9.67846 21.1595 9.40497C21.433 9.13148 21.5866 8.76055 21.5866 8.37378C21.5866 7.987 21.433 7.61607 21.1595 7.34258C20.886 7.06909 20.5151 6.91544 20.1283 6.91544V6.91778Z" fill="#064376"/>
</svg>