<svg xmlns="http://www.w3.org/2000/svg" width="28" height="28" viewBox="0 0 28 28" fill="none">
  <path d="M17.7926 18.795L19.7526 16.835C20.0166 16.5743 20.3506 16.3959 20.714 16.3213C21.0775 16.2467 21.4548 16.2793 21.8001 16.415L24.1888 17.3688C24.5378 17.5104 24.837 17.7522 25.0488 18.0636C25.2606 18.3751 25.3754 18.7422 25.3788 19.1188V23.4938C25.3768 23.75 25.323 24.0031 25.2205 24.2379C25.1181 24.4727 24.9692 24.6844 24.7828 24.8602C24.5964 25.0359 24.3764 25.1721 24.136 25.2606C23.8955 25.3491 23.6397 25.388 23.3838 25.375C6.64509 24.3338 3.26759 10.1588 2.62884 4.73379C2.59919 4.46738 2.62628 4.19772 2.70833 3.94253C2.79038 3.68735 2.92554 3.45243 3.1049 3.25323C3.28426 3.05403 3.50377 2.89506 3.74898 2.78679C3.99419 2.67852 4.25954 2.62339 4.52759 2.62504H8.75384C9.13097 2.62615 9.49915 2.74007 9.81101 2.95214C10.1229 3.1642 10.3642 3.46472 10.5038 3.81504L11.4576 6.20379C11.5978 6.54772 11.6336 6.92535 11.5604 7.2895C11.4873 7.65364 11.3085 7.98817 11.0463 8.25129L9.08634 10.2113C9.08634 10.2113 10.2151 17.85 17.7926 18.795Z" fill="#012454"/>
</svg>