<svg xmlns="http://www.w3.org/2000/svg" width="33" height="34" viewBox="0 0 33 34" fill="none">
<path d="M16.5 3.59375C9.09627 3.59375 3.09375 9.59627 3.09375 17C3.09375 24.3921 9.10852 30.4062 16.5 30.4062C23.9031 30.4062 29.9062 24.4031 29.9062 17C29.9062 9.60787 23.8921 3.59375 16.5 3.59375ZM23.4609 19.0625H15.7266C15.6582 19.0625 15.5926 19.0353 15.5443 18.987C15.4959 18.9386 15.4688 18.8731 15.4688 18.8047V7.97656C15.4688 7.90819 15.4959 7.84261 15.5443 7.79426C15.5926 7.74591 15.6582 7.71875 15.7266 7.71875H17.2734C17.3418 7.71875 17.4074 7.74591 17.4557 7.79426C17.5041 7.84261 17.5312 7.90819 17.5312 7.97656V17H23.4609C23.5293 17 23.5949 17.0272 23.6432 17.0755C23.6916 17.1239 23.7188 17.1894 23.7188 17.2578V18.8047C23.7188 18.8731 23.6916 18.9386 23.6432 18.987C23.5949 19.0353 23.5293 19.0625 23.4609 19.0625Z" fill="#012252"/>
</svg>