<svg xmlns="http://www.w3.org/2000/svg" width="63" height="63" viewBox="0 0 63 63" fill="none">
<circle cx="31.6516" cy="31.5229" r="31.2844" fill="#EAE6FF"/>
<path d="M23.6235 32.6786C23.6252 32.8116 23.6003 32.9436 23.5502 33.0668C23.5001 33.19 23.4258 33.3019 23.3317 33.396C23.2377 33.49 23.1258 33.5643 23.0026 33.6144C22.8793 33.6645 22.7474 33.6895 22.6144 33.6878H17.0639C16.8764 33.6862 16.6929 33.6338 16.5329 33.536C16.3729 33.4383 16.2425 33.2989 16.1556 33.1327C16.0749 32.9635 16.0416 32.7756 16.0593 32.5889C16.0771 32.4023 16.1453 32.224 16.2566 32.0731C17.1497 30.8742 18.3414 29.9304 19.713 29.3357C19.1236 28.7962 18.6708 28.1245 18.3918 27.3757C18.1128 26.627 18.0156 25.8228 18.1081 25.0291C18.2007 24.2355 18.4804 23.4752 18.9242 22.8108C19.3681 22.1464 19.9634 21.5969 20.6611 21.2076C21.3588 20.8182 22.139 20.6001 22.9375 20.5712C23.7359 20.5423 24.5299 20.7034 25.2539 21.0413C25.978 21.3792 26.6114 21.8842 27.1021 22.5148C27.5928 23.1453 27.9268 23.8834 28.0765 24.6683C28.1138 24.8727 28.0879 25.0836 28.0023 25.2729C27.9167 25.4623 27.7753 25.621 27.5972 25.7279C25.9656 26.6954 24.7247 28.2041 24.0903 29.9917C23.7775 30.8528 23.6195 31.7624 23.6235 32.6786ZM47.1373 32.0731C46.2442 30.8742 45.0525 29.9304 43.6809 29.3357C44.2702 28.7962 44.7231 28.1245 45.0021 27.3757C45.2811 26.627 45.3783 25.8228 45.2857 25.0291C45.1932 24.2355 44.9134 23.4752 44.4696 22.8108C44.0258 22.1464 43.4305 21.5969 42.7328 21.2076C42.0351 20.8182 41.2549 20.6001 40.4564 20.5712C39.6579 20.5423 38.864 20.7034 38.1399 21.0413C37.4159 21.3792 36.7824 21.8842 36.2917 22.5148C35.801 23.1453 35.4671 23.8834 35.3173 24.6683C35.28 24.8727 35.3059 25.0836 35.3916 25.2729C35.4772 25.4623 35.6185 25.621 35.7967 25.7279C37.4304 26.6929 38.672 28.2025 39.3036 29.9917C39.6163 30.8528 39.7744 31.7624 39.7703 32.6786C39.7686 32.8116 39.7936 32.9436 39.8437 33.0668C39.8938 33.19 39.9681 33.3019 40.0621 33.396C40.1562 33.49 40.2681 33.5643 40.3913 33.6144C40.5145 33.6645 40.6465 33.6895 40.7795 33.6878H46.33C46.5174 33.6878 46.7011 33.6356 46.8605 33.537C47.0199 33.4385 47.1488 33.2975 47.2326 33.1299C47.3164 32.9623 47.3519 32.7746 47.3351 32.588C47.3182 32.4013 47.2497 32.223 47.1373 32.0731ZM35.3804 37.4848C36.3848 36.715 37.1227 35.6498 37.4905 34.439C37.8584 33.2282 37.8376 31.9326 37.4312 30.7342C37.0247 29.5358 36.253 28.4949 35.2245 27.7577C34.196 27.0204 32.9624 26.624 31.6969 26.624C30.4315 26.624 29.1978 27.0204 28.1693 27.7577C27.1408 28.4949 26.3691 29.5358 25.9627 30.7342C25.5563 31.9326 25.5355 33.2282 25.9033 34.439C26.2712 35.6498 27.0091 36.715 28.0134 37.4848C26.0513 38.3559 24.4605 39.8931 23.5226 41.8242C23.448 41.9777 23.4146 42.1479 23.4256 42.3182C23.4367 42.4885 23.4918 42.653 23.5857 42.7956C23.673 42.9418 23.7968 43.0628 23.945 43.1468C24.0931 43.2309 24.2606 43.275 24.4309 43.2749H38.963C39.1333 43.275 39.3007 43.2309 39.4489 43.1468C39.597 43.0628 39.7208 42.9418 39.8082 42.7956C39.902 42.653 39.9572 42.4885 39.9682 42.3182C39.9793 42.1479 39.9459 41.9777 39.8712 41.8242C38.9334 39.8931 37.3426 38.3559 35.3804 37.4848Z" fill="#3E00C2"/>
</svg>