<svg xmlns="http://www.w3.org/2000/svg" width="33" height="27" viewBox="0 0 33 27" fill="none">
  <path d="M19.0082 11.2048C18.8839 11.2039 18.7643 11.2523 18.6755 11.3393C18.5867 11.4264 18.536 11.545 18.5343 11.6693V15.1404C18.536 15.265 18.587 15.3838 18.6761 15.4709C18.7652 15.558 18.8852 15.6062 19.0098 15.6049L29.4656 15.6049C29.5902 15.6062 29.7102 15.558 29.7993 15.4709C29.8884 15.3838 29.9394 15.265 29.9411 15.1404V11.6693C29.9394 11.5447 29.8884 11.4258 29.7993 11.3388C29.7102 11.2517 29.5902 11.2035 29.4656 11.2048L19.0082 11.2048ZM25.4201 0.163679C26.8669 0.232725 27.9073 0.518325 28.5664 1.12405C29.2177 1.72349 29.5519 2.59128 29.6178 3.73996V7.03063C29.6145 7.31087 29.5001 7.57834 29.2997 7.7743C29.0994 7.97025 28.8294 8.07867 28.5492 8.07574C28.4103 8.0774 28.2724 8.05168 28.1434 8.00005C28.0145 7.94843 27.897 7.87191 27.7976 7.77486C27.6982 7.67781 27.6189 7.56213 27.5642 7.43444C27.5096 7.30674 27.4806 7.16953 27.4789 7.03063L27.4805 3.79959C27.446 3.20328 27.3032 2.83294 27.0992 2.64463C26.9015 2.4626 26.2989 2.2994 25.3683 2.25232L4.84907 2.25232C4.00639 2.28371 3.45873 2.44377 3.19353 2.67131C2.98953 2.84549 2.83574 3.32568 2.83417 4.1558L2.82947 22.6256C2.90793 23.4322 3.08525 23.9705 3.31279 24.2388C3.4854 24.4428 4.02051 24.6468 4.80827 24.7472L25.3903 24.7472C26.3538 24.7661 26.9219 24.6217 27.1133 24.4287C27.3252 24.2137 27.4789 23.6488 27.4789 22.7245V19.5154C27.4789 18.9395 27.9576 18.4703 28.5492 18.4703C29.1392 18.4703 29.6178 18.9395 29.6178 19.5154V22.7245C29.6178 24.1368 29.3291 25.1929 28.6527 25.8787C27.956 26.5848 26.8481 26.8673 25.3683 26.8359L4.68116 26.8312C3.27356 26.668 2.26454 26.282 1.66353 25.5711C1.119 24.9277 0.816143 24.0097 0.695313 22.7261L0.695313 4.15423C0.698451 2.77959 1.02799 1.74546 1.78436 1.09894C2.47796 0.502632 3.47913 0.212325 4.80827 0.162109L25.4201 0.162109V0.163679ZM29.4656 9.11457C30.9093 9.11457 32.0799 10.2585 32.0799 11.6693V15.1404C32.0799 16.5512 30.9093 17.6951 29.4656 17.6951H19.0098C17.5661 17.6951 16.3955 16.5496 16.3955 15.1404V11.6693C16.3955 10.2585 17.5661 9.11457 19.0098 9.11457L29.4656 9.11457ZM21.6241 12.1589C20.9023 12.1589 20.317 12.7238 20.317 13.419C20.317 14.1157 20.9023 14.6791 21.6241 14.6791C22.346 14.6791 22.9313 14.1141 22.9313 13.419C22.9313 12.7222 22.346 12.1573 21.6241 12.1573V12.1589Z" fill="#064477"/>
</svg>