<svg xmlns="http://www.w3.org/2000/svg" width="28" height="29" viewBox="0 0 28 29" fill="none">
<path d="M14.0026 2.83325C20.4461 2.83325 25.6693 8.05642 25.6693 14.4999C25.6693 20.9434 20.4461 26.1666 14.0026 26.1666C11.9409 26.1699 9.91539 25.6243 8.13429 24.5858L2.34062 26.1666L3.91795 20.3706C2.87856 18.5889 2.33251 16.5626 2.33595 14.4999C2.33595 8.05642 7.55912 2.83325 14.0026 2.83325ZM10.0266 9.01659L9.79329 9.02592C9.64223 9.03512 9.4946 9.0748 9.35929 9.14259C9.23273 9.21425 9.1172 9.30385 9.01629 9.40859C8.87629 9.54042 8.79695 9.65475 8.71179 9.76558C8.28026 10.3266 8.04792 11.0155 8.05145 11.7233C8.05379 12.2949 8.20312 12.8514 8.43645 13.3718C8.91362 14.4241 9.69879 15.5383 10.7348 16.5708C10.9845 16.8193 11.2295 17.0689 11.4931 17.3011C12.7804 18.4345 14.3144 19.2518 15.9731 19.6881L16.6358 19.7896C16.8516 19.8013 17.0675 19.7849 17.2845 19.7744C17.6242 19.7569 17.956 19.6649 18.2563 19.5049C18.4091 19.4262 18.5582 19.3406 18.7031 19.2483C18.7031 19.2483 18.7533 19.2156 18.849 19.1433C19.0065 19.0266 19.1033 18.9438 19.234 18.8073C19.3308 18.7069 19.4148 18.5891 19.479 18.4549C19.57 18.2648 19.661 17.9019 19.6983 17.5998C19.7263 17.3688 19.7181 17.2428 19.7146 17.1646C19.71 17.0398 19.6061 16.9103 19.493 16.8554L18.814 16.5509C18.814 16.5509 17.799 16.1088 17.1783 15.8264C17.1133 15.7981 17.0437 15.7818 16.973 15.7786C16.8931 15.7704 16.8125 15.7794 16.7364 15.8049C16.6603 15.8305 16.5906 15.872 16.532 15.9268C16.5261 15.9244 16.448 15.9909 15.6045 17.0129C15.556 17.078 15.4894 17.1271 15.4129 17.1542C15.3364 17.1812 15.2537 17.1848 15.1751 17.1646C15.0991 17.1442 15.0247 17.1185 14.9523 17.0876C14.8076 17.0269 14.7575 17.0036 14.6583 16.9616C13.9887 16.6694 13.3688 16.2746 12.8208 15.7914C12.6738 15.6631 12.5373 15.5231 12.3973 15.3878C11.9383 14.9482 11.5383 14.4509 11.2073 13.9084L11.1385 13.7976C11.089 13.7231 11.049 13.6428 11.0195 13.5584C10.9751 13.3869 11.0906 13.2493 11.0906 13.2493C11.0906 13.2493 11.3741 12.9389 11.506 12.7709C11.6343 12.6076 11.7428 12.4489 11.8128 12.3358C11.9505 12.1141 11.9936 11.8866 11.9213 11.7104C11.5946 10.9124 11.2563 10.1179 10.9086 9.32925C10.8398 9.17292 10.6356 9.06092 10.4501 9.03875C10.3871 9.03175 10.3241 9.02475 10.2611 9.02008C10.1044 9.0123 9.94744 9.01386 9.79095 9.02475L10.0255 9.01542L10.0266 9.01659Z" fill="#064376"/>
</svg>